<?xml version="1.0" encoding="utf-8"?>
<!-- Generator: Adobe Illustrator 16.0.0, SVG Export Plug-In . SVG Version: 6.00 Build 0)  -->
<!DOCTYPE svg PUBLIC "-//W3C//DTD SVG 1.1//EN" "http://www.w3.org/Graphics/SVG/1.1/DTD/svg11.dtd">
<svg version="1.1" id="Layer_1" xmlns="http://www.w3.org/2000/svg" xmlns:xlink="http://www.w3.org/1999/xlink" x="0px" y="0px"
	 width="83.363px" height="55.494px" viewBox="0 0 83.363 55.494" enable-background="new 0 0 83.363 55.494" xml:space="preserve">
<g>
	<defs>
		<rect id="SVGID_1_" width="83.363" height="55.494"/>
	</defs>
	<clipPath id="SVGID_2_">
		<use xlink:href="#SVGID_1_"  overflow="visible"/>
	</clipPath>
	<path clip-path="url(#SVGID_2_)" fill="#FFDA30" d="M76.788,21.535c-1.581,0-2.867,1.287-2.867,2.868s1.286,2.868,2.867,2.868
		c1.582,0,2.868-1.287,2.868-2.868S78.37,21.535,76.788,21.535 M76.788,25.636c-0.68,0-1.231-0.553-1.231-1.233
		c0-0.68,0.552-1.233,1.231-1.233c0.682,0,1.233,0.553,1.233,1.233C78.021,25.083,77.47,25.636,76.788,25.636"/>
	<path clip-path="url(#SVGID_2_)" fill="#FFDA30" d="M83.244,25.19L74.884,1.4C74.589,0.563,73.795,0,72.908,0
		c-0.236,0-0.47,0.04-0.694,0.119l-7.106,2.498c-0.528,0.185-0.952,0.565-1.194,1.069c-0.242,0.505-0.273,1.073-0.088,1.601
		l0.27,0.767c-5.527,1.495-10.022,0.369-14.007-0.63c-0.815-0.205-1.588-0.398-2.36-0.569c-3.39-0.749-6.861-1.453-8.815-1.11
		c-2.276,0.398-5.193,1.925-7.431,3.888c-0.062,0.054-0.124,0.111-0.188,0.169c-0.378,0.002-0.761,0.007-1.162,0.012
		c-3.44,0.046-7.317,0.098-10.812-1.906l0.218-0.621c0.186-0.528,0.155-1.096-0.088-1.601c-0.241-0.504-0.665-0.884-1.193-1.069
		L11.15,0.119C10.925,0.04,10.692,0,10.455,0C9.567,0,8.774,0.563,8.48,1.4L0.118,25.19c-0.383,1.09,0.193,2.287,1.282,2.67
		l7.107,2.498c0.224,0.079,0.458,0.119,0.694,0.119c0.887,0,1.681-0.563,1.976-1.4l0.019-0.056c0.86,0.787,1.986,2.148,3.357,3.805
		c0.784,0.949,1.66,2.007,2.619,3.117l-0.826,1.085c-0.587,0.771-0.839,1.725-0.709,2.685s0.626,1.812,1.396,2.397
		c0.637,0.485,1.396,0.742,2.196,0.742c0.39,0,0.771-0.061,1.13-0.178c-0.004,0.191,0.003,0.386,0.025,0.58
		c0.124,1.095,0.666,2.059,1.527,2.714c0.688,0.523,1.512,0.801,2.385,0.801c0.52,0,1.033-0.101,1.512-0.291
		c-0.005,0.194,0.003,0.389,0.025,0.585c0.123,1.095,0.666,2.059,1.526,2.714c0.688,0.524,1.513,0.801,2.386,0.801
		c0.621,0,1.233-0.146,1.789-0.412c0.07,1.007,0.554,1.98,1.418,2.639c0.638,0.484,1.397,0.742,2.196,0.742
		c1.045,0,2.015-0.438,2.703-1.207l4.172,2.493l0.014,0.008c0.759,0.433,1.6,0.653,2.45,0.653c0.441,0,0.885-0.06,1.322-0.179
		c1.279-0.351,2.345-1.18,3.003-2.332c0.421-0.742,0.64-1.565,0.649-2.396l1.969,1.119c0.76,0.434,1.599,0.654,2.449,0.654
		c0.441,0,0.886-0.06,1.322-0.18c1.28-0.352,2.346-1.179,3.002-2.332c0.404-0.708,0.622-1.49,0.65-2.286
		c0.609,0.258,1.258,0.389,1.914,0.389c0.439,0,0.884-0.059,1.32-0.179c1.279-0.351,2.347-1.179,3.002-2.332
		c0.526-0.923,0.738-1.968,0.621-3.004c0.146,0.012,0.29,0.019,0.435,0.019c1.743,0,3.413-0.924,4.316-2.511
		c0.647-1.138,0.802-2.461,0.433-3.725c-0.351-1.196-1.144-2.267-2.233-3.014c-0.289-0.197-0.612-0.434-0.965-0.701
		c0.661-0.734,2.271-2.357,4.48-3.453l0.01,0.025c0.294,0.837,1.088,1.4,1.975,1.4c0.237,0,0.47-0.04,0.695-0.119l7.105-2.498
		C83.053,27.478,83.627,26.279,83.244,25.19 M9.201,28.843c-0.051,0-0.102-0.009-0.152-0.026l-7.107-2.498
		c-0.24-0.084-0.366-0.347-0.282-0.586l8.362-23.79c0.064-0.185,0.238-0.308,0.433-0.308c0.051,0,0.103,0.009,0.153,0.026
		l7.106,2.498c0.116,0.04,0.209,0.124,0.263,0.235c0.052,0.11,0.059,0.235,0.018,0.351l-8.36,23.791
		C9.569,28.719,9.396,28.843,9.201,28.843 M18.024,40.811c-0.423-0.323-0.696-0.79-0.767-1.317
		c-0.071-0.527,0.066-1.051,0.389-1.474l1.228-1.613c0.001-0.001,0.002-0.003,0.003-0.004c0.38-0.497,0.957-0.782,1.585-0.782
		c0.438,0,0.855,0.141,1.204,0.407c0.874,0.665,1.043,1.917,0.378,2.791l-1.229,1.614c-0.38,0.499-0.958,0.785-1.586,0.785
		C18.79,41.218,18.373,41.076,18.024,40.811 M22.901,44.669c-0.502-0.384-0.819-0.95-0.892-1.599
		c-0.075-0.66,0.112-1.324,0.527-1.868l1.467-1.927c0.494-0.647,1.258-1.036,2.044-1.036c0.513,0,0.995,0.162,1.395,0.467
		c1.049,0.8,1.213,2.354,0.366,3.467L26.34,44.1c-0.493,0.647-1.258,1.035-2.044,1.035C23.784,45.135,23.302,44.974,22.901,44.669
		 M28.35,48.478c-0.502-0.383-0.82-0.95-0.893-1.597c-0.074-0.662,0.112-1.325,0.527-1.87l1.468-1.926
		c0.493-0.649,1.258-1.036,2.044-1.036c0.512,0,0.994,0.162,1.395,0.467c0.503,0.383,0.82,0.949,0.892,1.597
		c0.075,0.661-0.112,1.325-0.526,1.869l-1.468,1.927c-0.494,0.648-1.258,1.035-2.044,1.035C29.233,48.943,28.75,48.782,28.35,48.478
		 M35.148,51.911c-0.439,0-0.855-0.141-1.205-0.406c-0.874-0.666-1.043-1.918-0.377-2.792l1.229-1.614
		c0.38-0.499,0.958-0.785,1.586-0.785c0.438,0,0.854,0.141,1.205,0.407c0.873,0.666,1.043,1.918,0.378,2.791l-0.943,1.239
		c-0.013,0.015-0.026,0.031-0.038,0.049l-0.249,0.327C36.354,51.626,35.775,51.911,35.148,51.911 M69.042,39.136
		c-0.795,1.396-2.471,2.026-3.985,1.501c-0.192-0.067-0.38-0.152-0.56-0.255l-10.532-5.997c-0.392-0.224-0.891-0.087-1.113,0.306
		c-0.225,0.393-0.087,0.891,0.305,1.114l10.533,5.998c0.09,0.052,0.183,0.1,0.277,0.146c0.003,0.057,0.013,0.113,0.026,0.17
		c0.229,0.853,0.115,1.745-0.322,2.513c-0.439,0.773-1.156,1.329-2.015,1.563c-0.858,0.236-1.756,0.123-2.53-0.316l-10.825-6.164
		c-0.392-0.225-0.892-0.087-1.113,0.305c-0.225,0.392-0.088,0.891,0.305,1.115l9.638,5.487c0.195,0.823,0.073,1.681-0.347,2.417
		c-0.44,0.774-1.155,1.329-2.013,1.565c-0.859,0.235-1.758,0.122-2.531-0.318l-9.704-5.525c-0.391-0.224-0.89-0.087-1.114,0.306
		c-0.224,0.393-0.087,0.892,0.307,1.114l5.963,3.396c0.257,0.869,0.151,1.805-0.3,2.598c-0.44,0.773-1.155,1.33-2.014,1.564
		c-0.855,0.235-1.752,0.123-2.522-0.313l-3.997-2.389l0.406-0.533c1.212-1.592,0.903-3.871-0.688-5.082
		c-0.636-0.485-1.396-0.742-2.195-0.742c-0.332,0-0.656,0.045-0.967,0.13c0.028-0.291,0.028-0.585-0.006-0.879
		c-0.124-1.095-0.666-2.06-1.527-2.715c-0.688-0.523-1.512-0.801-2.385-0.801c-0.52,0-1.034,0.103-1.514,0.292
		c0.036-1.259-0.498-2.498-1.549-3.301c-0.688-0.523-1.513-0.8-2.386-0.8c-0.699,0-1.386,0.184-1.996,0.52
		c-0.125-0.921-0.6-1.792-1.395-2.397c-0.636-0.486-1.395-0.742-2.194-0.742c-0.807,0-1.568,0.26-2.189,0.731
		c-0.896-1.04-1.719-2.036-2.46-2.932c-1.668-2.017-2.989-3.612-4.038-4.412L18.77,7.473c3.242,1.764,6.739,1.99,9.8,1.99
		c0.372,0,0.735-0.004,1.092-0.008c-0.1,0.106-0.201,0.214-0.302,0.322c-0.68,0.725-1.383,1.476-2.112,2.176
		c-0.397,0.384-0.818,0.745-1.224,1.094c-0.967,0.83-1.88,1.613-2.272,2.541c-0.308,0.727-0.424,1.403-0.345,2.008
		c0.08,0.611,0.351,1.139,0.803,1.569c1.063,1.011,2.839,1.195,4.142,1.171c1.505-0.028,3.069-0.349,4.081-0.837
		c0.996-0.481,1.947-1.179,2.867-1.854c0.949-0.697,1.846-1.354,2.684-1.702c0.671-0.278,2.888-0.764,3.957-0.405
		c4.99,1.678,13.133,8.561,19.079,13.586c2.773,2.345,5.171,4.37,6.718,5.431C69.369,35.673,69.917,37.599,69.042,39.136
		 M66.409,31.491c-1.247-1.006-2.727-2.257-4.336-3.617c-3.108-2.627-6.631-5.605-10.079-8.19c-4.052-3.038-7.17-4.901-9.533-5.696
		c-1.677-0.564-4.365,0.139-5.103,0.444c-1.02,0.423-2.04,1.171-3.025,1.894c-0.86,0.632-1.75,1.284-2.611,1.7
		c-0.788,0.381-2.155,0.652-3.401,0.675c-1.368,0.025-2.484-0.245-2.985-0.721c-0.16-0.153-0.586-0.557-0.078-1.757
		c0.242-0.573,1.014-1.236,1.83-1.937c0.424-0.364,0.862-0.74,1.295-1.156c0.758-0.73,1.475-1.496,2.17-2.236
		c0.741-0.791,1.441-1.538,2.006-2.033c2.306-2.024,4.995-3.22,6.634-3.507c1.662-0.291,5.093,0.413,8.18,1.096
		c0.751,0.166,1.513,0.357,2.318,0.559c2.188,0.548,4.449,1.115,7.008,1.325c2.735,0.225,5.339-0.016,7.939-0.734L71.632,27.5
		C69.026,28.742,67.179,30.619,66.409,31.491 M81.421,26.318l-7.105,2.498c-0.051,0.018-0.103,0.026-0.153,0.026
		c-0.194,0-0.369-0.124-0.433-0.308L65.367,4.745c-0.04-0.116-0.033-0.241,0.02-0.351c0.054-0.111,0.146-0.195,0.263-0.235
		l7.106-2.498c0.05-0.017,0.102-0.026,0.152-0.026c0.195,0,0.368,0.123,0.434,0.308l8.36,23.79
		C81.786,25.972,81.66,26.234,81.421,26.318"/>
	<path clip-path="url(#SVGID_2_)" fill="#FFDA30" d="M6.575,21.535c-1.581,0-2.868,1.287-2.868,2.868s1.287,2.868,2.868,2.868
		c1.581,0,2.868-1.287,2.868-2.868S8.155,21.535,6.575,21.535 M6.575,25.636c-0.68,0-1.233-0.553-1.233-1.233
		c0-0.68,0.553-1.233,1.233-1.233c0.68,0,1.233,0.553,1.233,1.233C7.808,25.083,7.254,25.636,6.575,25.636"/>
</g>
</svg>
