<?xml version="1.0" encoding="utf-8"?>
<!-- Generator: Adobe Illustrator 22.0.1, SVG Export Plug-In . SVG Version: 6.00 Build 0)  -->
<svg version="1.1" id="Layer_1" xmlns="http://www.w3.org/2000/svg" xmlns:xlink="http://www.w3.org/1999/xlink" x="0px" y="0px"
	 width="84.8px" height="29.4px" viewBox="0 0 84.8 29.4" style="enable-background:new 0 0 84.8 29.4;" xml:space="preserve">
<style type="text/css">
	.st0{fill:#FFFFFF;}
</style>
<g>
	<path className="st0" d="M9.9,28.7c-5.4-2.2-8.8-6-9.7-11.8S1.5,6.5,6.1,2.8c3,6.2,6,12.3,9,18.5C13.3,23.7,11.6,26.2,9.9,28.7z"/>
	<path className="st0" d="M16.8,18.6C15.2,12.5,13.6,6.4,12,0.3c4.6-1,10.4,0.6,14,5.1C23,9.8,19.9,14.2,16.8,18.6z"/>
	<path className="st0" d="M29,11.1c1.9,7-2.1,15-9.5,17.5c-0.6-2.2-1.1-4.4-1.7-6.6C21.4,18.4,25.2,14.8,29,11.1z"/>
	<path className="st0" d="M54.5,18.8c-0.7,0-1.3,0-2.1,0c-0.5-0.7-1-1.4-1.5-2.1s-1-1.4-1.6-2.2c0,1.4,0,2.8,0,4.3c-0.8,0-1.5,0-2.3,0
		c0-2.7,0-5.5,0-8.3c0.7,0,1.3,0,2.1,0c0.9,1.3,1.9,2.6,2.9,4c0-1.4,0-2.7,0-4c0.8,0,1.6,0,2.4,0C54.5,13.2,54.5,16,54.5,18.8z"/>
	<path className="st0" d="M43.3,29c-2,0-3.4-0.9-4.1-2.5c-0.7-1.7-0.3-3.8,1-5c1-1,2.3-1.2,3.6-1.1c2,0.2,3.3,1.4,3.7,3.3
		c0.5,2.3-0.6,4.6-3.1,5.2C44,29,43.6,29,43.3,29z M45,25c0-0.7-0.1-1.1-0.4-1.5c-0.6-1.1-2.1-1.1-2.8-0.1c-0.5,0.8-0.5,2,0.1,2.7
		c0.6,0.8,1.6,0.9,2.4,0.2C44.8,26,45,25.4,45,25z"/>
	<path className="st0" d="M73.4,16.1c-0.2-0.1-0.3-0.1-0.4,0c0,0.9,0,1.8,0,2.7c-0.8,0-1.6,0-2.4,0c0-2.8,0-5.5,0-8.3
		c0.1,0,0.1-0.1,0.1-0.1c1.4,0,2.7-0.1,4.1,0.1c1.3,0.1,2.2,0.8,2.5,1.9c0.3,1.3-0.1,2.4-1.2,3.1c-0.1,0.1-0.2,0.1-0.2,0.2
		c0.3,0.5,0.5,0.9,0.8,1.4s0.5,0.9,0.8,1.4c-0.8,0.2-1.6,0.4-2.5,0.5C74.3,18.1,73.8,17.1,73.4,16.1z M72.9,14.2
		c0.5,0,1,0.1,1.4-0.2c0.3-0.2,0.5-0.5,0.4-0.8c-0.1-0.4-0.3-0.6-0.6-0.6c-0.4-0.1-0.8-0.1-1.3-0.1C72.9,13,72.9,13.6,72.9,14.2z"/>
	<path className="st0" d="M67.1,10.5c0.9,0,1.6,0,2.5,0c0.1,0.1,0.1,0.2,0.1,0.3c0,1.5,0,3.1,0,4.7c0,0.5-0.1,1.1-0.3,1.6
		c-0.3,0.9-1,1.5-1.9,1.8c-1.1,0.3-2.2,0.3-3.2-0.1c-1.2-0.4-2-1.3-2.1-2.6c-0.1-1.9,0-3.8,0-5.7c0.8,0,1.6,0,2.4,0
		c0.1,0.1,0.1,0.3,0.1,0.4c0,1.4,0,2.9,0,4.3c0,0.2,0,0.4,0.1,0.6c0.2,0.7,0.7,1.1,1.3,1.1c0.6-0.1,1.1-0.5,1.2-1.2
		c0.1-0.3,0.1-0.6,0.1-1c0-1.3,0-2.5,0-3.8C67.1,10.8,67.1,10.7,67.1,10.5z"/>
	<path className="st0" d="M49.4,28.9c-0.9,0-1.9,0-2.8,0c0.5-0.8,0.9-1.4,1.3-2.2s0.8-1.4,1.3-2.1c-0.8-1.3-1.6-2.6-2.4-4c1,0,2,0,2.9,0
		c0.3,0.6,0.6,1.2,1,1.9c0.3-0.7,0.6-1.2,0.9-1.9c1,0,1.9,0,2.9,0c-0.8,1.3-1.6,2.7-2.4,4.1c0.8,1.4,1.7,2.8,2.6,4.3
		c-0.9,0-1.9,0-2.8,0c-0.4-0.7-0.8-1.3-1.2-2.1C50.2,27.5,49.8,28.2,49.4,28.9z"/>
	<path className="st0" d="M39.8,8.8c-2.1,0-4.2,0-6.3,0c0-0.5,0-1.1,0-1.6c0.7-0.6,1.4-1.2,2.1-1.8C36,5,36.5,4.7,36.9,4.3
		c0.3-0.3,0.5-0.7,0.5-1.1c0-0.3-0.1-0.6-0.4-0.8c-0.4-0.1-0.7-0.1-0.9,0.2s-0.4,0.6-0.5,0.9c-0.8-0.2-1.5-0.3-2.3-0.5
		c0.3-1.6,1.2-2.5,2.8-2.6c0.5-0.1,1.1,0,1.6,0.1c2.1,0.4,2.8,2.8,1.6,4.3c-0.5,0.6-1.1,1-1.6,1.5c-0.1,0.1-0.3,0.2-0.5,0.4
		c1,0,1.9,0,2.8,0C40,7.5,39.9,8.1,39.8,8.8z"/>
	<path className="st0" d="M40.3,11.6c-0.5,0.6-0.9,1.2-1.3,1.8c-0.3-0.2-0.6-0.5-0.9-0.6c-1-0.4-2,0.1-2.3,1.1c-0.1,0.5-0.2,0.9-0.1,1.3
		c0.3,1.3,1.5,1.8,2.8,1.1c0.2-0.1,0.4-0.3,0.6-0.4c0.5,0.6,0.9,1.2,1.3,1.8c-0.4,0.4-0.9,0.7-1.4,0.9c-1.7,0.5-3.3,0.4-4.7-0.7
		c-0.7-0.6-1.2-1.4-1.3-2.3c-0.3-1.6,0.1-3,1.3-4.2C35.9,10,38.9,10,40.3,11.6z"/>
	<path className="st0" d="M46.2,12.8c-1,0-1.9,0-2.9,0c-0.1,0.4-0.1,0.6-0.1,1c0.7,0,1.4,0,2.1,0c0,0.7,0,1.3,0,2c-0.7,0-1.3,0-2.1,0
		c-0.1,0.3-0.1,0.6,0,1c1,0,1.9,0,2.9,0c-0.1,0.7-0.2,1.4-0.3,2.1c-1.7,0-3.4,0-5.1,0c0-2.8,0-5.5,0-8.3c1.7,0,3.3,0,5.1,0
		C46.1,11.2,46.2,12,46.2,12.8z"/>
	<path className="st0" d="M45.1,8c0.4-0.7,0.7-1.2,1-1.9c0.4,0.2,0.7,0.4,1,0.6C47.5,6.9,48,7,48.5,7c0.3-0.1,0.6-0.1,0.7-0.5
		c0-0.4-0.2-0.5-0.5-0.6c-0.5-0.2-1-0.4-1.5-0.6c-1.3-0.5-1.8-1.3-1.8-2.5c0.1-1,0.8-2,2-2.4C48.7,0,50,0.2,51.2,0.9
		C51.3,1,51.4,1,51.4,1.1c-0.3,0.6-0.7,1.2-1,1.7c-0.2-0.1-0.4-0.3-0.7-0.4c-0.5-0.2-0.9-0.3-1.4-0.3c-0.3,0.1-0.6,0.2-0.6,0.5
		c-0.1,0.3,0.2,0.5,0.4,0.6c0.3,0.1,0.6,0.2,0.9,0.3c0.4,0.1,0.7,0.2,1,0.4c1.1,0.5,1.5,1.4,1.4,2.6c-0.1,1.1-0.7,1.7-1.6,2.1
		C48.1,9.4,46.6,8.9,45.1,8z"/>
	<path className="st0" d="M33.6,28.8c0-2.8,0-5.5,0-8.3c1.6,0,3.3,0,5,0c0.1,0.7,0.2,1.5,0.2,2.3c-0.9,0-1.8,0-2.7,0
		c-0.1,0.4,0,0.8-0.1,1.1c0.8,0,1.5,0,2.2,0c0,0.8,0,1.4,0,2.2c-0.7,0-1.4,0-2.2,0c0,0.9,0,1.8,0,2.7C35.2,28.8,34.4,28.8,33.6,28.8
		z"/>
	<path className="st0" d="M81.9,18.8c-0.8,0-1.6,0-2.4,0c0-0.9,0-1.8,0-2.6c0-0.3-0.1-0.5-0.2-0.7c-0.8-1.5-1.6-3-2.5-4.5
		c-0.1-0.2-0.2-0.3-0.2-0.5c0.9,0,1.8,0,2.7,0c0.5,0.9,0.9,1.9,1.4,2.9c0.5-1,0.9-2,1.4-2.9c0.9,0,1.8,0,2.7,0
		c0,0.3-0.2,0.4-0.3,0.6c-0.8,1.5-1.6,2.9-2.5,4.4c-0.1,0.2-0.2,0.4-0.2,0.6C81.9,17,81.9,17.9,81.9,18.8z"/>
	<path className="st0" d="M51.5,2.8c0.1-0.8,0.2-1.5,0.2-2.2c2,0,4,0,6,0c0.1,0.7,0.1,1.4,0.2,2.2c-0.7,0-1.3,0-2,0c0,2.1,0,4.1,0,6.1
		c-0.8,0-1.6,0-2.5,0c0-2,0-4,0-6.1C52.8,2.8,52.2,2.8,51.5,2.8z"/>
	<path className="st0" d="M55.2,10.5c2,0,4,0,6,0c0.1,0.7,0.2,1.4,0.2,2.2c-0.7,0-1.3,0-2,0c0,2.1,0,4.1,0,6.1c-0.8,0-1.6,0-2.5,0
		c0-2,0-4,0-6.1c-0.7,0-1.3,0-2,0C55,11.9,55.2,11.2,55.2,10.5z"/>
	<path className="st0" d="M18.7,28.9c-2.7,0.7-5.4,0.7-8.1,0c1.9-1.8,3.7-3.6,5.5-5.3C17,25.3,17.8,27.1,18.7,28.9z"/>
	<path className="st0" d="M44.5,8.8c-0.8,0-1.6,0-2.4,0c0-1.7,0-3.4,0-5.1C41.6,4,41,4.2,40.3,4.1c0-0.6,0-1.2,0-1.9
		c1-0.2,1.7-0.8,2.2-1.7c0.7,0,1.3,0,2,0C44.5,3.3,44.5,6,44.5,8.8z"/>
</g>
</svg>
