<?xml version="1.0" encoding="utf-8"?>
<!-- Generator: Adobe Illustrator 22.0.1, SVG Export Plug-In . SVG Version: 6.00 Build 0)  -->
<svg version="1.1" id="Layer_1" xmlns="http://www.w3.org/2000/svg" xmlns:xlink="http://www.w3.org/1999/xlink" x="0px" y="0px"
	 width="130.3px" height="17px" viewBox="0 0 130.3 17" style="enable-background:new 0 0 130.3 17;" xml:space="preserve">
<style type="text/css">
	.st0{fill:#FFFFFF;}
</style>
<g>
	<path className="st0" d="M0,7.2c0.2-0.1,0.2-0.4,0.2-0.6c0.9-3.8,4.2-6.4,8.1-6.4c3.3,0,6.6,0,9.9,0c4.3,0.1,7.9,3.3,8.3,7.4
		c0.4,4.5-2.4,8.3-6.7,9.2c-0.1,0-0.3,0-0.3,0.1c-4.1,0-8.3,0-12.4,0c-0.1-0.2-0.3-0.1-0.4-0.2c-3.4-0.9-5.5-3-6.4-6.4
		c0-0.2,0-0.4-0.2-0.4C0,9,0,8.1,0,7.2z M13.2,14c1.5,0,3,0,4.5,0c0.4,0,0.9,0,1.3-0.1c2.7-0.6,4.4-2.8,4.3-5.6
		c-0.1-2.6-2-4.9-4.7-5.1c-3.6-0.3-7.2-0.3-10.8,0C5,3.5,3,6.1,3.2,8.8c0.2,3,2.5,5.1,5.5,5.1C10.2,14,11.7,14,13.2,14z"/>
	<path className="st0" d="M117.2,17c-0.2-0.2-0.5-0.2-0.7-0.2c-4-1-6.6-4.6-6.3-8.9c0.2-3.8,3.4-7.1,7.4-7.6c0.5-0.1,0.9-0.1,1.4-0.1
		c3.5,0,7,0,10.4,0c0.2,0,0.4,0,0.8,0c-0.7,1.1-1.3,2-1.9,3c-3.2,0-6.4,0-9.6,0c-2.2,0-4.2,1.5-5,3.6c0,0.1-0.1,0.2-0.1,0.4
		c5.2,0,10.4,0,15.7,0c-0.7,1-1.3,2-1.9,3c-4.6,0-9.1,0-13.8,0c0.3,1.1,0.9,1.9,1.7,2.6c0.9,0.8,1.9,1.3,3.1,1.3c4,0,8,0,12,0
		c0.1,0.3-0.1,0.4-0.2,0.6c-0.5,0.8-1.1,1.6-1.5,2.4C124.8,17,121,17,117.2,17z"/>
	<path className="st0" d="M28.3,17c0-5.5,0-11,0-16.6c0-0.1,0-0.1,0-0.2c0.2-0.1,0.3-0.1,0.5-0.1c4.5,0,8.9,0,13.4,0
		c2.8,0,5.1,1.7,5.7,4.4c0.8,3.4-1.7,6.8-5.2,6.9c-0.5,0-1.1,0-1.6,0c0,0.3,0.3,0.4,0.4,0.5c1.9,1.6,3.9,3.3,5.8,4.9
		c-1.6,0-3.1,0-4.7,0c-0.1-0.1-0.2-0.2-0.3-0.3c-2.8-2.5-5.6-4.9-8.4-7.4c-0.2-0.2-0.5-0.4-0.8-0.7c0.4,0,0.6,0,0.8,0
		c2.7,0,5.3,0,8,0c1,0,1.9-0.3,2.5-1.2s0.6-1.8,0.2-2.7c-0.5-1-1.3-1.5-2.4-1.5c-3.5,0-6.9,0-10.4,0c-0.1,0-0.2,0-0.3,0.1
		c0,4.5,0,9,0,13.5c0,0.1,0,0.1,0,0.2C30.5,17,29.4,17,28.3,17z"/>
	<path className="st0" d="M48.3,17c0.6-0.9,1.1-1.8,1.7-2.7c2.7-4.2,5.4-8.4,8-12.6c0.5-0.8,1-1.4,1.9-1.6c0.3,0,0.7,0,1,0
		c0.9,0.3,1.4,1,1.9,1.7c3.2,5,6.5,10.1,9.7,15.2c-1.3,0-2.6,0-3.9,0c-0.4-1.1-1.2-2-1.7-3c-3,0-5.8,0-8.7,0c-0.6-1-1.2-1.9-1.9-2.9
		c2.9,0,5.7,0,8.6,0c-1.5-2.5-3-4.9-4.6-7.3C57.5,8.2,54.8,12.6,52,17C50.8,17,49.5,17,48.3,17z"/>
	<path className="st0" d="M77.9,17c-0.1-0.2-0.3-0.2-0.5-0.2c-3.9-1-6.5-4.4-6.5-8.2c0.1-4,2.8-7.3,6.8-8.2c0.5-0.1,0.9-0.2,1.4-0.2
		c3.9,0,7.8,0,11.8,0c-0.7,1-1.3,2-1.9,3c-0.2,0-0.5,0-0.7,0c-2.9,0-5.8,0-8.7,0c-2.8,0-5.2,2.1-5.4,4.8c-0.3,2.9,1.5,5.3,4.3,6
		c0.5,0.1,1,0.1,1.5,0.1c3.7,0,7.4,0,11.2,0c-0.5,1.1-1.3,1.9-1.7,3C85.5,17,81.7,17,77.9,17z"/>
	<path className="st0" d="M93.8,17c-0.9-0.4-1.2-1.2-1.2-2.2c0-4.6,0-9.3,0-13.9c0-0.2,0-0.5,0-0.7c1.1,0,2.1,0,3.2,0
		c0,4.6,0,9.1,0,13.8c5,0,10,0,15.1,0c-0.7,1.1-1.3,2-1.8,3C103.9,17,98.9,17,93.8,17z"/>
</g>
</svg>
