<?xml version="1.0" encoding="utf-8"?>
<!-- Generator: Adobe Illustrator 22.0.1, SVG Export Plug-In . SVG Version: 6.00 Build 0)  -->
<svg version="1.1" id="Layer_1" xmlns="http://www.w3.org/2000/svg" xmlns:xlink="http://www.w3.org/1999/xlink" x="0px" y="0px"
	 width="43.2px" height="36.2px" viewBox="0 0 43.2 36.2" style="enable-background:new 0 0 43.2 36.2;" xml:space="preserve">
<style type="text/css">
	.st0{fill:#FFFFFF;}
</style>
<g>
	<path className="st0" d="M19.5,8.2c0,1.8-0.5,3.3-1.5,4.6s-2.5,2.2-4.6,2.8v0.1l7.7,10.6h-5.7l-7-10H5.1v10H0.4V0.5h7.9
		c1.3,0,2.5,0.1,3.6,0.2C13,0.9,14,1.1,14.8,1.4C16.3,2,17.5,2.8,18.3,4C19.1,5.1,19.5,6.5,19.5,8.2z M7.4,12.4c1.1,0,2,0,2.8-0.2
		c0.8-0.1,1.4-0.2,1.9-0.4c1-0.3,1.6-0.8,2-1.5c0.4-0.6,0.5-1.3,0.5-2.1c0-0.7-0.2-1.3-0.4-1.8c-0.3-0.5-0.8-1-1.5-1.3
		c-0.5-0.2-1-0.3-1.7-0.5c-0.7-0.1-1.5-0.2-2.5-0.2H5.1v7.9L7.4,12.4L7.4,12.4z M36.8,4c-1.3,0-2.5,0.2-3.6,0.7
		c-1.1,0.4-2,1-2.8,1.8s-1.4,1.8-1.8,3C28.2,10.7,28,12,28,13.6c0,1.5,0.2,2.9,0.6,4c0.4,1.2,1,2.1,1.7,2.9s1.6,1.3,2.7,1.8
		c1.1,0.4,2.3,0.6,3.6,0.6c1,0,2-0.1,3-0.2c1-0.2,2-0.4,2.9-0.7v4c-0.9,0.3-1.9,0.5-2.9,0.6s-2.1,0.2-3.3,0.2
		c-2.2,0-4.1-0.3-5.8-0.9c-1.6-0.6-3.1-1.5-4.2-2.6s-2-2.5-2.5-4.1c-0.6-1.6-0.8-3.3-0.8-5.3s0.3-3.8,0.9-5.5s1.5-3.1,2.6-4.4
		c1.1-1.2,2.5-2.2,4.2-2.9C32.5,0.4,34.4,0,36.6,0c1.1,0,2.1,0.1,3.1,0.2c1,0.2,1.9,0.3,2.6,0.6v4c-1-0.3-2-0.5-2.9-0.7
		C38.5,4.1,37.7,4,36.8,4z M0.1,30.2h43.1v1.5H0.1V30.2z M2.3,33.9c0,0.2-0.1,0.4-0.2,0.6s-0.3,0.3-0.6,0.3l0.9,1.3H1.8L1,34.9H0.6
		v1.2H0V33h1c0.2,0,0.3,0,0.4,0c0.2,0,0.3,0,0.3,0.1c0.2,0.1,0.3,0.2,0.4,0.3C2.3,33.6,2.3,33.8,2.3,33.9z M0.8,34.4h0.3
		c0.1,0,0.2,0,0.2,0c0.1,0,0.2-0.1,0.2-0.2c0-0.1,0.1-0.2,0.1-0.3s0-0.2,0-0.2c0-0.1-0.1-0.1-0.2-0.2c0,0-0.1,0-0.2,0H0.6v1
		L0.8,34.4L0.8,34.4z M4.7,35.4H3.5l-0.3,0.8H2.6L3.8,33h0.5l1.2,3.1H5L4.7,35.4z M4.1,33.8c-0.1,0.3-0.2,0.6-0.3,0.8l-0.1,0.3h0.8
		l-0.1-0.3C4.3,34.4,4.2,34.1,4.1,33.8z M7.6,34.5c0.2,0.3,0.4,0.6,0.5,0.8c0-0.4,0-0.7,0-0.9V33h0.6v3.1H8.1l-1-1.5
		c-0.2-0.2-0.4-0.5-0.6-0.9c0,0.4,0,0.7,0,0.9V36H5.9v-3h0.6L7.6,34.5z M9.3,36.2V33h0.6v1.4L11,33h0.7l-1.3,1.5l1.4,1.6h-0.7
		l-1.3-1.4v1.4L9.3,36.2L9.3,36.2z M12.2,36.2V33h0.6v3.1h-0.6V36.2z M15,34.5c0.2,0.3,0.4,0.6,0.5,0.8c0-0.4,0-0.7,0-0.9V33h0.6
		v3.1h-0.6l-1-1.5c-0.2-0.2-0.4-0.5-0.6-0.9c0,0.4,0,0.7,0,0.9V36h-0.5v-3H14L15,34.5z M18.7,34.9H18v-0.5h1.3V36c0,0-0.1,0-0.2,0
		s-0.2,0-0.2,0c-0.1,0-0.2,0-0.3,0h-0.3c-0.3,0-0.5,0-0.7-0.1s-0.4-0.2-0.5-0.3c-0.2-0.2-0.2-0.3-0.3-0.5s-0.1-0.4-0.1-0.6
		c0-0.2,0-0.3,0-0.5s0.1-0.3,0.2-0.4c0.1-0.1,0.2-0.2,0.3-0.3c0.1-0.1,0.2-0.2,0.3-0.3c0.1-0.1,0.3-0.1,0.4-0.2c0.2,0,0.3,0,0.5,0
		s0.3,0,0.5,0s0.3,0,0.3,0.1v0.5c-0.1,0-0.2-0.1-0.4-0.1c-0.1,0-0.2,0-0.4,0s-0.3,0-0.5,0.1c-0.2,0-0.3,0.1-0.4,0.2
		c-0.1,0.1-0.2,0.2-0.3,0.4s-0.1,0.3-0.1,0.5c0,0.4,0.1,0.7,0.3,0.8s0.5,0.3,0.8,0.3h0.2c0.1,0,0.1,0,0.2,0v-0.7H18.7z M22.1,33.4
		c-0.2,0-0.3,0-0.4,0.1c-0.1,0-0.2,0.1-0.3,0.2L21.2,34c0,0.2-0.1,0.3-0.1,0.5s0,0.3,0.1,0.5c0,0.2,0.1,0.3,0.2,0.3
		c0.1,0.1,0.2,0.2,0.3,0.2c0.1,0,0.3,0.1,0.5,0.1c0.1,0,0.2,0,0.3,0c0.1,0,0.2,0,0.3-0.1V36c-0.1,0-0.2,0-0.3,0.1
		c-0.1,0-0.3,0-0.4,0c-0.3,0-0.5,0-0.7-0.1s-0.4-0.2-0.5-0.3c-0.2-0.2-0.2-0.3-0.3-0.5c-0.1-0.2-0.1-0.4-0.1-0.7
		c0-0.2,0-0.5,0.1-0.7s0.2-0.4,0.3-0.5c0.2-0.2,0.3-0.3,0.5-0.3c0.2-0.1,0.4-0.1,0.7-0.1c0.1,0,0.3,0,0.4,0s0.2,0,0.3,0.1v0.5
		c-0.1,0-0.2-0.1-0.3-0.1C22.3,33.4,22.2,33.4,22.1,33.4z M25,35.4h-1.2l-0.3,0.8h-0.6l1.2-3.1h0.5l1.2,3.1h-0.6L25,35.4z
		 M24.4,33.8c-0.1,0.3-0.2,0.6-0.3,0.8L24,34.9h0.8l-0.1-0.3C24.7,34.4,24.5,34.1,24.4,33.8z M28.6,33.9c0,0.2-0.1,0.4-0.2,0.6
		c-0.1,0.2-0.3,0.3-0.6,0.3l0.9,1.3H28l-0.8-1.2h-0.4v1.2h-0.6V33h1c0.2,0,0.3,0,0.4,0c0.2,0,0.3,0,0.3,0.1c0.2,0.1,0.3,0.2,0.4,0.3
		C28.5,33.6,28.6,33.8,28.6,33.9z M27.1,34.4h0.3c0.1,0,0.2,0,0.2,0c0.1,0,0.2-0.1,0.2-0.2c0.1-0.1,0.1-0.2,0.1-0.3s0-0.2,0-0.2
		c0-0.1-0.1-0.1-0.2-0.2c0,0-0.1,0-0.2,0h-0.7v1L27.1,34.4L27.1,34.4z M32.1,34.6c0,0.2,0,0.5-0.1,0.7s-0.2,0.4-0.3,0.5
		c-0.1,0.2-0.3,0.3-0.5,0.3c-0.2,0.1-0.4,0.1-0.7,0.1s-0.5,0-0.7-0.1s-0.3-0.2-0.5-0.3c-0.1-0.2-0.2-0.3-0.3-0.5s0-0.5,0-0.7
		s0-0.5,0.1-0.7s0.2-0.4,0.3-0.5c0.1-0.2,0.3-0.3,0.5-0.3c0.2-0.1,0.4-0.1,0.7-0.1s0.5,0,0.7,0.1s0.3,0.2,0.5,0.3
		c0.1,0.2,0.2,0.3,0.3,0.5C32.1,34.1,32.1,34.4,32.1,34.6z M31.5,34.6c0-0.2,0-0.3-0.1-0.5c0-0.2-0.1-0.3-0.2-0.3
		c-0.1-0.1-0.2-0.2-0.3-0.2c-0.1,0-0.2-0.1-0.4-0.1s-0.3,0-0.4,0.1c-0.1,0-0.2,0.1-0.3,0.2c-0.1,0.1-0.2,0.2-0.2,0.3
		c0,0.2-0.1,0.3-0.1,0.5s0,0.3,0.1,0.5c0,0.2,0.1,0.3,0.2,0.3c0.1,0.1,0.2,0.2,0.3,0.2c0.1,0,0.2,0.1,0.4,0.1s0.3,0,0.4-0.1
		c0.1,0,0.2-0.1,0.3-0.2c0.1-0.1,0.2-0.2,0.2-0.3C31.5,34.9,31.5,34.8,31.5,34.6z M33.1,33v2.6h1.5v0.5h-2V33H33.1z M35,36.2V33h0.6
		v3.1H35V36.2z M37.9,34.5c0.2,0.3,0.4,0.6,0.5,0.8c0-0.4,0-0.7,0-0.9V33H39v3.1h-0.6l-1-1.5c-0.2-0.2-0.4-0.5-0.6-0.9
		c0,0.4,0,0.7,0,0.9V36h-0.6v-3h0.6L37.9,34.5z M41.4,35.4h-1.2l-0.3,0.8h-0.6l1.2-3.1H41l1.2,3.1h-0.6L41.4,35.4z M40.8,33.8
		c-0.1,0.3-0.2,0.6-0.3,0.8l-0.1,0.3h0.8l-0.1-0.3C41,34.4,40.9,34.1,40.8,33.8z M43.2,33.5c0,0.3-0.3,0.6-0.6,0.6S42,33.8,42,33.5
		s0.3-0.6,0.7-0.6C42.9,32.9,43.2,33.1,43.2,33.5z M42,33.5c0,0.3,0.2,0.5,0.5,0.5s0.5-0.2,0.5-0.5S42.8,33,42.5,33
		C42.3,33,42,33.2,42,33.5z M42.4,33.8h-0.2v-0.6h0.2c0.1,0,0.2,0,0.2,0l0.1,0.1c0,0.1,0,0.1-0.1,0.2c0.1,0,0.1,0.1,0.1,0.2
		c0,0.1,0,0.1,0,0.2h-0.2C42.5,33.9,42.5,33.8,42.4,33.8c0.1-0.2,0.1-0.2,0-0.2h-0.1L42.4,33.8L42.4,33.8z M42.4,33.5L42.4,33.5
		c0.2,0,0.2,0,0.2-0.1c0,0,0-0.1-0.1-0.1h-0.1L42.4,33.5L42.4,33.5z"/>
</g>
</svg>
