<?xml version="1.0" encoding="utf-8"?>
<!-- Generator: Adobe Illustrator 22.0.1, SVG Export Plug-In . SVG Version: 6.00 Build 0)  -->
<svg version="1.1" id="Layer_1" xmlns="http://www.w3.org/2000/svg" xmlns:xlink="http://www.w3.org/1999/xlink" x="0px" y="0px"
	 width="155px" height="45px" viewBox="0 0 155 45" style="enable-background:new 0 0 155 45;" xml:space="preserve">
<style type="text/css">
	.st0{fill:#FFFFFF;}
</style>
<g id="Page-1_3_">
	<g id="Global-Elements_3_" transform="translate(-389.000000, -140.000000)">
		<g id="Global-Nav-Copy-16_3_" transform="translate(290.000000, 125.000000)">
			<g id="WWR_logo_3_" transform="translate(99.000000, 15.000000)">
				<g id="Group-10_3_">
					<path id="Fill-1_3_" className="st0" d="M39.2,41.1c0,0.7-0.5,1.2-1.2,1.2c-0.7,0-1.2-0.5-1.2-1.2c0-0.7,0.5-1.2,1.2-1.2
						C38.7,39.9,39.2,40.4,39.2,41.1z M39,41.1c0-0.6-0.4-1-1-1c-0.5,0-1,0.4-1,1c0,0.6,0.4,1,1,1C38.6,42.1,39,41.7,39,41.1z
						 M38.3,41.7c0,0,0-0.1-0.1-0.1l0-0.2c0-0.1-0.1-0.1-0.2-0.1h-0.2v0.4h-0.3v-1.2h0.5c0.3,0,0.4,0.1,0.4,0.3
						c0,0.2-0.1,0.3-0.3,0.3c0.1,0,0.2,0.1,0.2,0.2l0.1,0.2c0,0,0,0.1,0.1,0.1L38.3,41.7L38.3,41.7z M38.1,40.7h-0.2V41h0.2
						c0.1,0,0.2,0,0.2-0.2C38.3,40.8,38.2,40.7,38.1,40.7z"/>
					<path id="Fill-3_3_" className="st0" d="M42,22.5C42,11.2,32.8,2,21.5,2C10.2,2,1,11.2,1,22.5S10.2,43,21.5,43
						C32.8,43,42,33.8,42,22.5z M27.6,23.3h4l-4,13.7h-4.2l-1.9-8.4h0L19.6,37h-4.2l-4-13.7h4l-4-13.7h4.3l1.9,8.8h0l2-8.8h3.7
						l2,8.8h0l2-8.8h4.3L27.6,23.3z M25.4,32.1l2-8.8h-4l-1.9-8.4h0l-1.9,8.4h-4l1.9,8.8h0l2-8.8h3.7L25.4,32.1L25.4,32.1z"/>
					<path id="Fill-6_3_" className="st0" d="M54.4,25.5C53,25.2,52,26,51.7,27.2l-0.3-1.7h-2.1v7.3h2.4v-3.4c0-1.3,0.7-1.8,1.6-1.8
						c0.3,0,0.7,0.1,0.9,0.2L54.4,25.5z M58.1,31.3c-0.8,0-1.4-0.6-1.4-1.6h4.5c0.1-0.3,0.1-0.7,0.1-1c0-1.8-1-3.3-3.2-3.3
						c-2.3,0-3.7,1.5-3.7,3.9c0,2.4,1.4,3.8,3.6,3.8c1.4,0,2.7-0.6,3.2-2l-2-0.7C59.1,31,58.7,31.3,58.1,31.3z M56.8,28.5
						c0.1-0.9,0.6-1.5,1.3-1.5c0.7,0,1,0.5,1,1.1c0,0.1,0,0.2,0,0.3H56.8z M65,23.5c0-0.8-0.7-1.3-1.4-1.3c-0.7,0-1.4,0.5-1.4,1.3
						c0,0.8,0.7,1.3,1.4,1.3C64.3,24.8,65,24.3,65,23.5z M62.4,32.9h2.4v-7.3h-2.4V32.9z M73.1,26.9c-0.3-1-1.1-1.5-2.2-1.5
						c-1,0-1.9,0.5-2.3,1.6l-0.3-1.4h-2v7.3h2.4v-4c0-1.1,0.5-1.5,1.1-1.5c0.7,0,0.9,0.4,0.9,1.1v4.4h2.4v-4c0-1.1,0.5-1.5,1.1-1.5
						c0.7,0,0.9,0.4,0.9,1.1v4.4h2.4v-5.2c0-1.6-1-2.4-2.3-2.4C74.3,25.4,73.4,26,73.1,26.9z M85.2,27.9c0-1.5-0.9-2.5-3-2.5
						c-1.9,0-3,0.9-3.2,2.4l2.2,0.3c0-0.6,0.3-1,0.9-1c0.6,0,0.8,0.3,0.8,0.9v0.7c-0.3,0-0.6,0-0.9,0c-2.1,0-3.3,0.8-3.3,2.3
						c0,1.4,0.9,2.1,2.3,2.1c1,0,1.8-0.4,2.1-1.1c0.1,0.2,0.1,0.4,0.3,0.5c0.3,0.4,0.8,0.7,1.5,0.7c0.5,0,1-0.1,1.3-0.4l-0.1-1.5
						c-0.1,0.1-0.3,0.2-0.4,0.2c-0.3,0-0.5-0.1-0.5-0.5L85.2,27.9L85.2,27.9z M82.9,30.3c0,0.9-0.6,1.2-1.1,1.2
						c-0.6,0-0.9-0.3-0.9-0.8c0-0.6,0.5-0.9,1.4-0.9c0.2,0,0.4,0,0.5,0V30.3z M89.1,27.9c0-0.7,0.3-1.1,1-1.1c0.6,0,1,0.4,1,1.1
						c0,0.7-0.4,1.1-1,1.1C89.4,29,89.1,28.5,89.1,27.9z M94.2,33.2c0-1.4-1-2.2-3-2.2h-1.9c-0.3,0-0.5-0.1-0.5-0.4
						c0-0.2,0.1-0.4,0.3-0.5c0.3,0.1,0.7,0.1,1,0.1c1.9,0,3.3-0.8,3.3-2.4c0-0.5-0.2-0.9-0.4-1.3c0.6-0.1,1.3-0.6,1.3-1.4l-1.9-0.6
						c0,0.5-0.2,0.9-0.4,1.2c-0.6-0.3-1.2-0.4-2-0.4c-2,0-3.3,0.9-3.3,2.5c0,1,0.5,1.6,1.4,2c-0.8,0.2-1.3,0.7-1.3,1.5
						c0,0.7,0.4,1.2,1,1.4c-0.9,0.1-1.6,0.6-1.6,1.4c0,1.4,1.8,1.8,3.6,1.8C92,36,94.2,35.2,94.2,33.2z M88.2,33.7
						c0-0.4,0.3-0.6,0.8-0.6h2.1c0.6,0,0.9,0.2,0.9,0.6c0,0.6-0.8,0.9-2.2,0.9C88.9,34.5,88.2,34.3,88.2,33.7z M97.6,23.5
						c0-0.8-0.7-1.3-1.4-1.3c-0.7,0-1.4,0.5-1.4,1.3c0,0.8,0.7,1.3,1.4,1.3C97,24.8,97.6,24.3,97.6,23.5z M95,32.9h2.4v-7.3H95V32.9
						z M101,25.6h-2.1v7.3h2.4v-4c0-1.1,0.6-1.5,1.2-1.5c0.7,0,1,0.4,1,1.2v4.4h2.4v-5.1c0-1.6-1-2.4-2.3-2.4c-1.1,0-2,0.6-2.3,1.6
						L101,25.6z M110.6,31.3c-0.8,0-1.4-0.6-1.4-1.6h4.5c0.1-0.3,0.1-0.7,0.1-1c0-1.8-1-3.3-3.2-3.3c-2.3,0-3.7,1.5-3.7,3.9
						c0,2.4,1.4,3.8,3.6,3.8c1.4,0,2.7-0.6,3.2-2l-1.9-0.7C111.7,31,111.2,31.3,110.6,31.3z M109.3,28.5c0.1-0.9,0.6-1.5,1.3-1.5
						c0.7,0,1,0.5,1,1.1c0,0.1,0,0.2,0,0.3H109.3z M119.7,29.5c0,1.1-0.6,1.7-1.3,1.7c-0.8,0-1.3-0.7-1.3-1.9c0-1.5,0.5-2.2,1.4-2.2
						c0.6,0,1.3,0.5,1.3,1.5L119.7,29.5L119.7,29.5z M120,32.9h2.1V22.4h-2.4v4.1c-0.3-0.7-1-1.1-2-1.1c-1.8,0-3.1,1.4-3.1,4
						c0,2.3,1.3,3.7,2.9,3.7c1.1,0,1.9-0.5,2.2-1.5L120,32.9z"/>
					<path id="Fill-8_3_" className="st0" d="M53.8,12.5l-1.1,4.8h0l-1-4.8h-2.4l2,7.3h2.3l1.1-4.5h0l1.1,4.5H58l2-7.3h-2.3l-1,4.8h0
						l-1.1-4.8H53.8z M63.9,18.3c-0.8,0-1.4-0.6-1.4-1.6H67c0.1-0.3,0.1-0.7,0.1-1c0-1.8-1-3.3-3.2-3.3c-2.3,0-3.7,1.5-3.7,3.9
						c0,2.4,1.4,3.8,3.6,3.8c1.4,0,2.7-0.6,3.2-2l-1.9-0.7C64.9,18,64.5,18.3,63.9,18.3z M62.6,15.5c0.1-0.9,0.6-1.4,1.3-1.4
						c0.7,0,1,0.5,1,1.1c0,0.1,0,0.2,0,0.3H62.6z M70.8,10.4c0-0.8-0.7-1.3-1.4-1.3c-0.7,0-1.4,0.5-1.4,1.3c0,0.8,0.7,1.3,1.4,1.3
						C70.2,11.7,70.8,11.3,70.8,10.4z M68.2,19.9h2.4v-7.4h-2.4V19.9z M74.2,14.8c0-0.7,0.3-1.1,1-1.1c0.6,0,1,0.4,1,1.1
						c0,0.7-0.4,1.1-1,1.1C74.5,15.9,74.2,15.5,74.2,14.8z M79.2,20.2c0-1.4-1-2.2-3-2.2h-1.9c-0.3,0-0.5-0.1-0.5-0.4
						c0-0.2,0.1-0.4,0.3-0.5c0.3,0.1,0.7,0.1,1.1,0.1c1.9,0,3.3-0.8,3.3-2.4c0-0.5-0.1-0.9-0.4-1.3c0.6-0.1,1.3-0.6,1.3-1.4
						l-1.9-0.6c0,0.4-0.2,0.9-0.4,1.2c-0.6-0.3-1.2-0.4-2-0.4c-2,0-3.3,0.9-3.3,2.5c0,1,0.5,1.6,1.4,2c-0.8,0.2-1.3,0.7-1.3,1.5
						c0,0.7,0.4,1.2,1,1.4c-0.9,0.1-1.6,0.6-1.6,1.4c0,1.4,1.8,1.8,3.6,1.8C77.1,22.9,79.2,22.2,79.2,20.2z M73.3,20.7
						c0-0.4,0.3-0.6,0.8-0.6h2.1c0.6,0,0.9,0.2,0.9,0.6c0,0.6-0.8,0.9-2.2,0.9C73.9,21.5,73.3,21.2,73.3,20.7z M82.5,9.4h-2.4v10.5
						h2.4v-4c0-1.1,0.6-1.6,1.2-1.6c0.7,0,1,0.4,1,1.2v4.4h2.4v-5.1c0-1.6-1-2.4-2.3-2.4c-1,0-1.9,0.5-2.3,1.5V9.4z M93.2,17.7
						c-0.4,0.3-0.7,0.4-1.1,0.4c-0.5,0-0.8-0.3-0.8-0.9v-3h1.9v-1.8h-1.9v-1.8l-2.4,0.3v1.6h-1v1.8h0.9v3.3c0,1.7,1.1,2.5,2.6,2.5
						c0.8,0,1.5-0.2,2-0.6L93.2,17.7z M98.3,12.5l-1.1,4.8h0l-1-4.8h-2.4l2,7.3h2.3l1.1-4.5h0l1.1,4.5h2.3l2-7.3h-2.3l-1,4.8h0
						l-1.1-4.8H98.3z M111.3,14.8c0-1.6-0.9-2.5-3-2.5c-1.9,0-3,0.9-3.2,2.4l2.2,0.3c0-0.6,0.3-1,0.9-1c0.6,0,0.8,0.3,0.8,0.9v0.7
						c-0.3,0-0.6,0-0.9,0c-2.1,0-3.3,0.8-3.3,2.3c0,1.4,0.9,2.1,2.3,2.1c1,0,1.8-0.4,2.1-1.1c0.1,0.2,0.1,0.4,0.3,0.5
						c0.3,0.4,0.8,0.7,1.5,0.7c0.5,0,1-0.1,1.3-0.4l-0.1-1.5c-0.1,0.1-0.3,0.2-0.4,0.2c-0.3,0-0.5-0.1-0.5-0.5L111.3,14.8
						L111.3,14.8z M109,17.2c0,0.9-0.6,1.2-1.1,1.2c-0.6,0-0.9-0.3-0.9-0.8c0-0.6,0.5-0.9,1.4-0.9c0.2,0,0.4,0,0.5,0V17.2z
						 M117.6,17.7c-0.4,0.3-0.7,0.4-1.1,0.4c-0.5,0-0.8-0.3-0.8-0.9v-3h1.9v-1.8h-1.9v-1.8l-2.4,0.3v1.6h-1v1.8h0.9v3.3
						c0,1.7,1.1,2.5,2.6,2.5c0.8,0,1.5-0.2,2-0.6L117.6,17.7z M118.3,16.2c0,2.4,1.4,3.9,3.7,3.9c1.6,0,2.8-0.9,3.1-2.3l-2.1-0.6
						c-0.1,0.7-0.5,1.2-1.1,1.2c-0.9,0-1.3-0.8-1.3-2.1c0-1.3,0.4-2.1,1.3-2.1c0.7,0,1,0.5,1,1.2l2.1-0.4c-0.2-1.5-1.3-2.5-3.1-2.5
						C119.8,12.3,118.3,13.8,118.3,16.2z M128.5,9.4h-2.4v10.5h2.4v-4c0-1.1,0.6-1.6,1.2-1.6c0.7,0,1,0.4,1,1.2v4.4h2.4v-5.1
						c0-1.6-1-2.4-2.3-2.4c-1,0-1.9,0.5-2.3,1.5L128.5,9.4L128.5,9.4z M137.8,18.3c-0.8,0-1.4-0.6-1.4-1.6h4.5
						c0.1-0.3,0.1-0.7,0.1-1c0-1.8-1-3.3-3.2-3.3c-2.3,0-3.7,1.5-3.7,3.9c0,2.4,1.4,3.8,3.6,3.8c1.4,0,2.7-0.6,3.2-2l-1.9-0.7
						C138.8,18,138.4,18.3,137.8,18.3z M136.5,15.5c0.1-0.9,0.6-1.4,1.3-1.4c0.7,0,1,0.5,1,1.1c0,0.1,0,0.2,0,0.3H136.5z
						 M147.2,12.4c-1.4-0.3-2.4,0.5-2.7,1.8l-0.3-1.7h-2.1v7.3h2.4v-3.4c0-1.3,0.7-1.8,1.6-1.8c0.4,0,0.7,0.1,0.9,0.2L147.2,12.4z
						 M147.5,18c0.3,1.4,1.6,2,3.2,2c1.9,0,3.3-0.9,3.3-2.5c0-2.9-4-1.7-4-3c0-0.4,0.3-0.7,0.9-0.7c0.6,0,1,0.3,1,0.8l2-0.2
						c-0.2-1.4-1.3-2.1-3.1-2.1c-1.7,0-3.1,0.9-3.1,2.5c0,2.8,4,1.7,4,3c0,0.5-0.4,0.7-1,0.7s-1.1-0.4-1.2-0.9L147.5,18z"/>
				</g>
			</g>
		</g>
	</g>
</g>
</svg>
