<?xml version="1.0" encoding="utf-8"?>
<!-- Generator: Adobe Illustrator 16.0.0, SVG Export Plug-In . SVG Version: 6.00 Build 0)  -->
<!DOCTYPE svg PUBLIC "-//W3C//DTD SVG 1.1//EN" "http://www.w3.org/Graphics/SVG/1.1/DTD/svg11.dtd">
<svg version="1.1" id="Layer_1" xmlns="http://www.w3.org/2000/svg" xmlns:xlink="http://www.w3.org/1999/xlink" x="0px" y="0px"
	 width="69.322px" height="66.14px" viewBox="0 0 69.322 66.14" enable-background="new 0 0 69.322 66.14" xml:space="preserve">
<g>
	<defs>
		<rect id="SVGID_1_" y="0" width="69.323" height="66.14"/>
	</defs>
	<clipPath id="SVGID_2_">
		<use xlink:href="#SVGID_1_"  overflow="visible"/>
	</clipPath>
	
		<path clip-path="url(#SVGID_2_)" fill="none" stroke="#FFDA30" stroke-width="1.7" stroke-linecap="round" stroke-linejoin="round" stroke-miterlimit="10" d="
		M24.611,48.584l-8.104,4.268c-5.2,2.738-11.695,0.724-14.433-4.476c-2.738-5.2-0.725-11.695,4.475-14.435l8.104-4.267
		L24.611,48.584z"/>
	
		<path clip-path="url(#SVGID_2_)" fill="none" stroke="#FFDA30" stroke-width="1.7" stroke-linecap="round" stroke-linejoin="round" stroke-miterlimit="10" d="
		M24.611,48.584c13.507-7.113,33.06-2.746,33.06-2.746l-3.202-6.077l-7.824-14.857L35.621,3.969c0,0-7.461,18.593-20.968,25.706"/>
	
		<path clip-path="url(#SVGID_2_)" fill="none" stroke="#FFDA30" stroke-width="1.7" stroke-linecap="round" stroke-linejoin="round" stroke-miterlimit="10" d="
		M23.52,49.158l-0.525,13.943c-0.098,2.616-3.813,3.019-4.47,0.485l-2.696-10.389"/>
	
		<path clip-path="url(#SVGID_2_)" fill="none" stroke="#FFDA30" stroke-width="1.7" stroke-linecap="round" stroke-linejoin="round" stroke-miterlimit="10" d="
		M44.059,19.298c3-1.58,6.747-0.418,8.327,2.582c1.579,3,0.418,6.748-2.582,8.327"/>
	
		<path clip-path="url(#SVGID_2_)" fill="none" stroke="#FFDA30" stroke-width="1.7" stroke-linecap="round" stroke-linejoin="round" stroke-miterlimit="10" d="
		M33.913,19.59c-2.357,3.57-5.396,7.433-9.068,10.618"/>
	
		<path clip-path="url(#SVGID_2_)" fill="none" stroke="#FFDA30" stroke-width="1.7" stroke-linecap="round" stroke-linejoin="round" stroke-miterlimit="10" d="
		M7.75,40.919c0.807-0.883,1.775-1.643,2.891-2.229l1.73-0.911"/>
	
		<line clip-path="url(#SVGID_2_)" fill="none" stroke="#FFDA30" stroke-width="1.7" stroke-linecap="round" stroke-linejoin="round" stroke-miterlimit="10" x1="59.801" y1="17.976" x2="67.765" y2="13.782"/>
	
		<line clip-path="url(#SVGID_2_)" fill="none" stroke="#FFDA30" stroke-width="1.7" stroke-linecap="round" stroke-linejoin="round" stroke-miterlimit="10" x1="47.504" y1="9.447" x2="50.17" y2="0.85"/>
	
		<line clip-path="url(#SVGID_2_)" fill="none" stroke="#FFDA30" stroke-width="1.7" stroke-linecap="round" stroke-linejoin="round" stroke-miterlimit="10" x1="68.473" y1="35.606" x2="59.875" y2="32.94"/>
	
		<line clip-path="url(#SVGID_2_)" fill="none" stroke="#FFDA30" stroke-width="1.7" stroke-linecap="round" stroke-linejoin="round" stroke-miterlimit="10" x1="53.194" y1="14.728" x2="56.048" y2="10.653"/>
	
		<line clip-path="url(#SVGID_2_)" fill="none" stroke="#FFDA30" stroke-width="1.7" stroke-linecap="round" stroke-linejoin="round" stroke-miterlimit="10" x1="58.848" y1="25.137" x2="63.782" y2="25.761"/>
	
		<line clip-path="url(#SVGID_2_)" fill="none" stroke="#FFDA30" stroke-width="1.7" stroke-linecap="round" stroke-linejoin="round" stroke-miterlimit="10" x1="17.736" y1="27.791" x2="27.909" y2="47.107"/>
</g>
</svg>
