<?xml version="1.0" encoding="utf-8"?>
<!-- Generator: Adobe Illustrator 22.0.1, SVG Export Plug-In . SVG Version: 6.00 Build 0)  -->
<svg version="1.1" id="Layer_1" xmlns="http://www.w3.org/2000/svg" xmlns:xlink="http://www.w3.org/1999/xlink" x="0px" y="0px"
	 width="112.6px" height="18.9px" viewBox="0 0 112.6 18.9" style="enable-background:new 0 0 112.6 18.9;" xml:space="preserve">
<style type="text/css">
	.st0{fill:#FFFFFF;}
</style>
<g>
	<g>
		<path className="st0" d="M1.4,2.2c-0.1,0-0.3,0.5-0.3,0.6C1,3,1.1,3.2,1.1,3.4"/>
	</g>
	<g>
		<path className="st0" d="M17.4,1.4c-0.4-0.1-1-0.1-1.4-0.1"/>
	</g>
	<g>
		<path className="st0" d="M15.5,1.2c0.3,0,0.5,0,0.8,0c0.2,0,0.5-0.1,0.7-0.1c-0.3,0-0.6-0.1-0.9,0"/>
	</g>
	<g>
		<path className="st0" d="M17.6,1.5C17.2,1.3,17,1,16.6,1c-0.3,0-0.6-0.1-0.9,0"/>
	</g>
	<g>
		<path className="st0" d="M1,2.1C1,2.6,0.9,3,0.9,3.5c0-0.3-0.1-0.6-0.1-0.9c-0.1,0.3-0.1,0.6,0,0.9c0.1,0.4,0.3,0.7,0.4,1.1"/>
	</g>
	<g>
		<path className="st0" d="M108.7,6.9c0.3-1.1-0.3-1.1-1-1.1s-1.5,0-2.3,0c-0.4,0-0.6,0.1-0.6,0.6c0,3.6,0,7.2,0,10.9
			c0,0.4,0.1,0.6,0.5,0.6c0.9,0,1.9,0,2.8,0c0.5,0,0.6-0.2,0.6-0.6c0-1.4,0-2.8,0-4.2c0-2.1,1.1-3.4,3.2-3.8
			c0.5-0.1,0.6-0.2,0.6-0.7c0-0.8-0.1-1.6,0-2.4c0-0.6-0.2-0.6-0.7-0.5C110.8,5.7,109.8,6.1,108.7,6.9z"/>
		<path className="st0" d="M28.3,0c-0.1,0.4,0.1,0.7,0.3,1c2,5.3,4,10.6,6,15.9c0.2,0.6,0.2,0.9-0.5,0.8c-1-0.1-1.9,0-2.9,0
			c-0.4,0-0.7-0.1-0.8-0.6c-0.2-0.7-0.5-1.5-0.8-2.2c-0.1-0.4-0.3-0.5-0.7-0.5c-1.7,0-3.5,0-5.2,0c-0.4,0-0.6,0.1-0.7,0.5
			c-0.2,0.8-0.5,1.5-0.8,2.3c-0.1,0.3-0.2,0.5-0.5,0.5c-2.2-0.1-4.4,0.2-6.6-0.1c-3.3-0.5-5.9-1.9-6.9-5.4c-0.1-0.4-0.5-0.4-0.8-0.5
			c-4.1-1-7-4.1-7.3-8.2c0-0.4,0.1-0.8-0.1-1.2c0-0.6,0-1.2,0-1.8C0,0.1,0.1,0,0.6,0c5.3,0,10.6,0,15.8,0c0.2,0.2,0.5,0.2,0.8,0.1
			c1.5,0.3,2.8,1,3.8,2.2c0.2,0.3,0.4,0.5,0.2,0.9c-0.5,1.2-0.9,2.3-1.4,3.6c-0.2-0.5-0.4-0.9-0.6-1.3c-0.6-1.4-1.7-2.1-3.2-2.1
			c-4,0-8,0-12,0C3.5,3.3,3.5,3.6,3.6,4C4,5.8,5,7.2,6.8,8c1.1,0.5,2.3,0.7,3.5,0.7c0.8-0.1,1.2,0.1,1,1c0,0.1,0,0.2,0,0.3
			c0,2.3,0.9,3.4,3.1,4.1c1.3,0.4,2.7,0.3,4.1,0.4c0.5,0,0.8-0.2,1-0.7c1.6-4.3,3.3-8.7,4.9-13c0.1-0.2,0.3-0.5,0.1-0.7
			C25.7,0,27,0,28.3,0z M26.3,5.7c-0.6,1.7-1.1,3.2-1.6,4.6c-0.1,0.3,0,0.4,0.3,0.4c1,0,2,0,3.1,0C27.5,9.1,26.9,7.5,26.3,5.7z"/>
		<path className="st0" d="M81.6,0.2c1.7,0.4,2.3,1.1,2.3,2.9c0,2.2,0,4.3,0,6.5c0,0.3-0.1,0.5,0.1,0.8c1.1-1.4,2.2-2.7,3.2-4.1
			c0.3-0.5,0.7-0.6,1.3-0.6c1.2,0,2.5,0,3.9,0c-0.4,0.6-0.8,1-1.1,1.4c-1,1.2-1.9,2.4-2.9,3.6c-0.3,0.4-0.3,0.6,0,1
			c1.5,1.9,3,3.8,4.7,5.9c-1.1,0-2.1-0.1-3.1,0c-1.3,0.1-2.1-0.3-2.8-1.3c-1-1.4-2.1-2.8-3.2-4.2c-0.2,0.3-0.1,0.6-0.1,0.8
			c0,1.3,0,2.7,0,4c0,0.5-0.1,0.7-0.6,0.6c-0.9,0-1.8,0-2.7,0c-0.4,0-0.6-0.1-0.6-0.5c0-5.7,0-11.5,0-17.2c0.3,0,0.5,0,0.8,0
			C81.1,0.2,81.3,0.2,81.6,0.2z"/>
		<path className="st0" d="M96.8,18c-0.1-0.3-0.4-0.2-0.6-0.2c-3.3-0.9-5.1-3.5-4.7-7c0.3-3.1,2.8-5.3,6-5.4c4.1-0.2,6.6,2.7,6.4,6.9
			c0,0.6-0.4,0.5-0.7,0.5c-2.4,0-4.9,0-7.3,0c-0.8,0-0.7,0.3-0.4,0.8c0.8,1.6,3.3,2,4.7,0.7c0.5-0.4,0.8-0.4,1.2-0.1
			c0.5,0.4,1,0.7,1.6,1c0.5,0.3,0.4,0.5,0.1,0.8c-1,1.1-2.2,1.7-3.7,1.9c-0.4,0-0.9-0.2-1.3,0.2c-0.1,0-0.1,0-0.2,0
			c-0.2-0.2-0.3-0.2-0.5,0C97.2,18,97,18,96.8,18z M97.7,10.2c0.6,0,1.2,0,1.8,0c0.7,0,0.8-0.1,0.5-0.8c-0.3-1-1.1-1.4-2.3-1.4
			c-1.1,0.1-2.1,0.8-2.4,1.6c-0.1,0.4,0,0.5,0.4,0.5C96.4,10.2,97.1,10.2,97.7,10.2z"/>
		<path className="st0" d="M52.3,17.9c-1.7-0.3-2.6-1.2-2.9-2.9c-0.1-0.5-0.1-1-0.1-1.4c0-4.2,0-8.5,0-12.7c0-0.3,0-0.6,0-0.9
			c0.3,0,0.6,0,1,0c0.1,0.2,0.3,0.2,0.5,0.1c1.7,0.3,2.4,1.1,2.4,2.9c0,0.6,0,1.2,0,1.8c0,0.5,0.2,0.6,0.6,0.6c0.7,0,1.4,0,2.2,0
			c0.5,0,0.6,0.2,0.6,0.6c0,0.8,0,1.7,0,2.5c0,0.4-0.1,0.6-0.6,0.5c-0.8,0-1.6,0-2.3,0c-0.4,0-0.5,0.1-0.5,0.5c0,1.2,0,2.4,0,3.5
			s0.5,1.5,1.6,1.5c0.3,0,0.6,0,0.8-0.1c0.8-0.3,1.1,0,1,0.8c0,0.2,0,0.4,0,0.6c0,1.7,0,1.7-1.8,1.9C53.9,17.9,53.1,17.9,52.3,17.9z
			"/>
		<path className="st0" d="M38.4,0.2c1.1,0.6,1.6,1.5,1.3,2.6c-0.3,0.9-1.2,1.6-2.2,1.6s-1.9-0.8-2.1-1.8c-0.2-1,0.3-1.9,1.6-2.6
			c0.3,0,0.6,0,1,0C38.1,0.2,38.3,0.2,38.4,0.2z"/>
		<path className="st0" d="M67.8,13.3c0,1.3,0,2.5,0,3.8c0,0.3,0.1,0.6-0.4,0.6c-2.3-0.1-4.6,0.2-6.8-0.2c-2.6-0.4-3.7-2.2-3-4.6
			c0.4-1.3,1.4-2.1,2.6-2.5c1-0.3,2.1-0.4,3.2-0.3c0.6,0,0.7-0.2,0.6-0.8c-0.2-1-0.9-1.5-2-1.3c-0.8,0.1-1.5,0.4-2.1,0.9
			c-0.4,0.3-0.6,0.2-0.9-0.1c-0.4-0.6-0.9-1.1-1.3-1.6c-0.2-0.3-0.2-0.4,0.1-0.6c1.9-1.6,5.9-1.9,8-0.6c1.4,0.8,2,2.1,2,3.7
			C67.9,10.9,67.8,12.1,67.8,13.3z M64.1,14c0-1.5,0.1-1.3-0.8-1.3c-1.4,0-2,0.4-2,1.3c0,0.9,0.6,1.2,2,1.3
			C64.4,15.3,64,14.6,64.1,14z"/>
		<path className="st0" d="M75,17.9c-0.2,0-0.3,0-0.5,0c-0.7,0-1.3,0-2,0c-1.3-0.1-2.4-0.6-3.5-1.3c-0.4-0.3-0.5-0.5-0.1-0.9
			c0.1-0.1,0.1-0.2,0.2-0.3c0.4-0.5,0.7-1.3,1.3-1.5c0.6-0.3,1.1,0.6,1.7,0.8c0.8,0.3,1.6,0.6,2.4,0.3c0.4-0.1,0.7-0.3,0.7-0.8
			s-0.2-0.8-0.6-0.9c-0.5-0.2-1.1-0.4-1.7-0.5c-0.4-0.1-0.9-0.2-1.3-0.4c-1.2-0.5-2.1-1.2-2.3-2.6c-0.2-1.5,0.3-2.8,1.5-3.6
			c1.6-1.1,3.5-1.2,5.3-0.8c0.9,0.2,1.7,0.5,2.5,1.1C79,6.8,79.2,7,78.7,7.4c-0.1,0.1-0.1,0.2-0.2,0.2c-0.4,0.5-0.7,1.2-1.2,1.5
			c-0.6,0.3-1-0.5-1.6-0.7C75,8.2,74.3,8,73.5,8.3c-0.3,0-0.5,0.3-0.6,0.7c0,0.4,0.2,0.7,0.6,0.8c0.5,0.2,1,0.3,1.5,0.4
			c0.7,0.2,1.3,0.3,1.9,0.6c1.2,0.6,2,1.5,2.1,2.9c0.1,1.5-0.5,2.7-1.8,3.5C76.5,17.6,75.8,17.8,75,17.9z"/>
		<path className="st0" d="M108.7,6.9c1-0.8,2-1.1,3.1-1.3c0.5-0.1,0.7,0,0.7,0.5c0,0.8,0,1.6,0,2.4c0,0.5-0.2,0.6-0.6,0.7
			c-2.1,0.3-3.2,1.7-3.2,3.8c0,1.4,0,2.8,0,4.2c0,0.4-0.1,0.6-0.6,0.6c-0.9,0-1.9,0-2.8,0c-0.4,0-0.5-0.1-0.5-0.6
			c0-3.6,0-7.2,0-10.9c0-0.5,0.2-0.6,0.6-0.6c0.7,0,1.5,0,2.3,0C108.4,5.7,109,5.7,108.7,6.9z"/>
		<path className="st0" d="M44.6,6.9c1.1-0.9,2.1-1.2,3.2-1.3c0.5-0.1,0.7,0.1,0.6,0.6c0,0.3,0,0.6,0,1c0,0.6,0.1,1.2,0,1.8
			c-0.2,0.6-1,0.4-1.5,0.6c-1.4,0.6-2.2,1.8-2.2,3.3c0,1.4,0,2.9,0,4.3c0,0.5-0.1,0.7-0.6,0.6c-0.9,0-1.8,0-2.7,0
			c-0.4,0-0.6-0.1-0.6-0.5c0-3.6,0-7.3,0-10.9c0-0.4,0.2-0.5,0.6-0.5c0.8,0,1.6,0.1,2.4,0C44.4,5.7,44.8,5.9,44.6,6.9z"/>
		<path className="st0" d="M35.6,11.6c0-1.8,0-3.7,0-5.5c0-0.5,0.1-0.7,0.6-0.6c0.6,0.1,1.1,0.1,1.7,0.3c1,0.4,1.7,1.1,1.7,2.2
			c0,3.1,0,6.2,0,9.3c0,0.4-0.2,0.5-0.6,0.5c-0.9,0-1.9,0-2.8,0c-0.5,0-0.6-0.2-0.6-0.6C35.6,15.2,35.6,13.4,35.6,11.6z"/>
		<g>
			<path className="st0" d="M81.8,1.5c0-0.1-0.4-0.2-0.6-0.2c0.5-0.1,1.2,0.3,1.3,0.8"/>
		</g>
		<g>
			<path className="st0" d="M81.2,1.2c0.1,0,0.2,0,0.3,0"/>
		</g>
		<g>
			<path className="st0" d="M50.4,1.8c0-0.1,0-0.5-0.1-0.5"/>
		</g>
		<g>
			<path className="st0" d="M38.5,2.2c0-0.2,0-0.4-0.1-0.6s-0.3-0.5-0.5-0.3"/>
		</g>
		<g>
			<path className="st0" d="M95.7,16.5c0,0.1,0.2,0.2,0.3,0.3c0.1,0.1,0.2,0.2,0.4,0.3c0.2,0.1,0.4,0.3,0.7,0.4c0.4,0.2,1.1,0.1,1.5,0
				c0.8-0.1,1.4-0.2,2.1-0.6"/>
		</g>
		<g>
			<path className="st0" d="M96.5,17.3c0.2,0.1,0.4,0.1,0.6,0.2"/>
		</g>
		<g>
			<path className="st0" d="M96.6,17.4c0.1,0.2,0.4,0.2,0.6,0.2c0.3,0,0.7,0,1,0"/>
		</g>
		<g>
			<path className="st0" d="M82,3.3c0-0.4-0.2-1-0.4-1.4c0-0.2,0-0.5-0.1-0.7S81.2,1,81,1"/>
		</g>
		<g>
			<path className="st0" d="M50.8,3.7c0.1-0.5,0-1.1-0.1-1.6c0-0.2-0.1-0.4-0.1-0.6c0-0.3,0-0.4-0.3-0.4"/>
		</g>
		<g>
			<path className="st0" d="M38.4,2.1c0-0.2,0-0.4-0.1-0.6C38.2,1.4,38.1,1,38,1"/>
		</g>
		<g>
			<path className="st0" d="M110.7,18.9c-0.6,0-1.1-0.5-1.1-1.1s0.5-1.1,1.1-1.1s1.1,0.5,1.1,1.1C111.8,18.4,111.3,18.9,110.7,18.9z
				 M110.7,17c-0.4,0-0.8,0.4-0.8,0.8s0.4,0.8,0.8,0.8c0.5,0,0.8-0.4,0.8-0.8S111.1,17,110.7,17z"/>
		</g>
		<g>
			<path className="st0" d="M110.6,17.9v0.4h-0.2v-1h0.3c0.1,0,0.2,0,0.3,0.1c0.1,0,0.1,0.1,0.1,0.2s0,0.1,0,0.2l-0.1,0.1l0.3,0.4h-0.2
				l-0.2-0.4C110.9,17.9,110.6,17.9,110.6,17.9z M110.6,17.8L110.6,17.8c0.1,0,0.2,0,0.2,0v-0.1v-0.1h-0.1h-0.1V17.8z"/>
		</g>
	</g>
</g>
</svg>
