<?xml version="1.0" encoding="utf-8"?>
<!-- Generator: Adobe Illustrator 22.0.1, SVG Export Plug-In . SVG Version: 6.00 Build 0)  -->
<svg version="1.1" id="Layer_1" xmlns="http://www.w3.org/2000/svg" xmlns:xlink="http://www.w3.org/1999/xlink" x="0px" y="0px"
	 width="91.5px" height="40.2px" viewBox="0 0 91.5 40.2" style="enable-background:new 0 0 91.5 40.2;" xml:space="preserve">
<style type="text/css">
	.st0{fill:#FFFFFF;}
</style>
<g>
	<path className="st0" d="M17.3,28.8c0,0.3,0,0.6-0.1,0.8c-0.4,1.2-1.5,1.4-2.4,1c-0.4-0.2-0.5-0.5-0.7-0.8c-0.2-0.5-0.3-1.1-0.3-1.6
		c0-0.2-0.1-0.4-0.1-0.7c-0.4-0.2-0.9-0.5-1.3-0.7c-1.8-1-3.4-2.2-4.9-3.7c-0.7-0.7-1.3-1.4-1.9-2.2c-0.2-0.3-0.4-0.7-0.5-1.1
		C5,19,5.3,18.4,5.8,17.9c0.5-0.6,1.2-1,1.9-1.3c1.7-0.8,3.5-1.3,5.3-1.6c0.4-0.1,0.8-0.1,1.2-0.2c0-0.3,0-0.6,0.1-0.8
		c0.1-1.7,0.3-3.4,0.9-5c0.1-0.2,0.1-0.4,0.2-0.5C15.6,8,15.9,8,16.2,8.2c0.2,0.1,0.3,0.3,0.4,0.4c0.6,0.7,0.8,1.6,0.9,2.4
		c0.1,0.9,0.1,1.7,0.1,2.6c0,0.3,0,0.5,0,0.8c0.4,0,0.7,0.1,1.1,0.1c1.2,0.1,2.4,0.2,3.6,0.4c1.4,0.2,2.7,0.5,4,1.1
		c0.8,0.4,1.4,0.8,1.9,1.5c1,1.3,0.8,2.9-0.5,3.9c-0.8,0.6-1.6,0.8-2.6,0.5c-0.4-0.1-0.7-0.3-0.9-0.6c0.1-0.2,0.2-0.3,0.4-0.4
		c0.3-0.1,0.6-0.2,0.8-0.3c0.1-0.1,0.3-0.1,0.4-0.2c0.3-0.2,0.3-0.6,0.1-0.9c-0.3-0.3-0.6-0.4-1-0.6c-0.9-0.3-1.8-0.5-2.7-0.7
		c-1.5-0.3-3-0.4-4.6-0.5c-0.1,0-0.1,0-0.2,0c-0.3,2.8-0.1,5.6-0.2,8.3c0.5,0.1,1,0.2,1.4,0.3c1.1,0.2,2.3,0.3,3.5,0.3
		c2.4,0,4.8-0.4,7.1-1.3c1.3-0.6,2.5-1.3,3.3-2.5c0.9-1.2,1.2-2.6,1.1-4c-0.1-1.6-0.7-3-1.6-4.3c-1.2-1.7-2.6-3.1-4.2-4.4
		c-2-1.6-4.3-2.9-6.6-4c-2.6-1.3-5.2-2.3-8-3c-2-0.5-4-0.7-6.1-0.8c-1.3-0.1-2.5,0-3.7,0.2c-0.5,0.2-1,0.3-1.6,0.6
		C1.9,3.2,2,3.3,2.2,3.3c0.2,0.1,0.4,0.1,0.6,0.1c0.1,0,0.2,0,0.4,0.1c0.3,0.1,0.4,0.2,0.4,0.4S3.4,4.2,3.2,4.3
		C2.4,4.6,1.5,4.5,0.7,4.2C0.5,4.2,0.4,4,0.2,3.9C0,3.6-0.1,3.3,0.1,2.9c0.2-0.3,0.4-0.6,0.6-1c0.4-0.6,0.9-1,1.6-1.2
		C3.2,0.4,4.1,0.3,5,0.2c0.7,0,1.3-0.1,2-0.2c0.1,0,0.2,0,0.2,0c3.3-0.1,6.6,0.5,9.8,1.4c5,1.4,9.5,3.8,13.5,7
		c2.4,1.9,4.3,4.2,5.7,6.9c0.7,1.3,1.1,2.7,1.1,4.2c-0.1,2.5-1,4.6-2.7,6.4c-1.3,1.3-2.9,2.1-4.6,2.7c-2.4,0.8-4.9,1.1-7.5,1.1
		c-1.8,0-3.5-0.3-5.1-0.8C17.4,28.8,17.3,28.8,17.3,28.8z M14.1,17.7c-0.1,0-0.1,0-0.1,0c-1.1,0-2.3,0.1-3.4,0.3
		c-1.1,0.2-2.1,0.3-3.1,0.6c-0.3,0.1-0.7,0.2-0.9,0.5c-0.3,0.2-0.3,0.5-0.2,0.8c0.1,0.2,0.2,0.3,0.3,0.5c0.4,0.5,0.8,0.9,1.3,1.3
		c1.5,1.3,3.2,2.3,5,3.1c0.3,0.1,0.5,0.2,0.8,0.3C13.9,22.6,14.1,20.2,14.1,17.7z"/>
	<path className="st0" d="M84.1,15.6c0.2,0.4,0.1,0.9,0,1.3c-0.2,0.8-0.7,1.6-1.2,2.3c-0.5,0.7-1,1.4-1.3,2.2c-0.3,0.7-0.5,1.5-0.5,2.3
		c0,0.1,0,0.1,0,0.2c0,0,0,0,0,0.1c0.2-0.2,0.4-0.5,0.6-0.7c0.8-1.1,1.6-2.2,2.5-3.2s1.8-1.9,3-2.5c0.5-0.3,1-0.5,1.5-0.5
		c0.8-0.1,1.4,0.2,1.9,0.8c0.5,0.6,0.7,1.3,0.7,2c0.1,1.1,0,2.3-0.3,3.3c-0.4,1.2-1.1,2.2-1.9,3.2c-0.8,0.9-1.7,1.7-2.7,2.2
		c-1.1,0.5-2.3,0.7-3.5,0.5h-0.1c0,0,0,0-0.1,0c-0.1,0.3-0.3,0.7-0.4,1c-1,2.4-1.8,4.8-2.3,7.3c-0.1,0.7-0.2,1.3-0.4,2
		c0,0.2-0.1,0.3-0.2,0.5c-0.2,0.4-0.4,0.5-0.8,0.3c-0.3-0.1-0.6-0.3-0.8-0.6c-1-1.1-1.4-2.4-1.2-3.8c0.2-2.1,0.9-4.1,1.6-6
		c0.4-1,0.8-1.9,1.3-2.9c-0.2-0.4-0.4-0.8-0.5-1.2c-0.3-1.3-0.2-2.6,0.2-3.9c0.6-2,1.8-3.6,3.2-5.1c0.4-0.4,0.8-0.8,1.3-1
		C83.9,15.6,84,15.5,84.1,15.6z M84.2,25.8c0.9-0.1,1.7-0.4,2.5-0.8c2-1.1,3.1-2.8,3-5.1c0-0.2-0.1-0.3-0.3-0.3
		c-0.1,0-0.2,0-0.3,0.1c-0.5,0.3-0.9,0.6-1.2,1c-0.9,1-1.7,2-2.4,3.1C85,24.5,84.6,25.1,84.2,25.8z"/>
	<path className="st0" d="M45.5,18.8c0.3,0.3,0.6,0.4,1,0.4c1.2,0.1,2.4,0.3,3.6,0.4c1.1,0.1,2.2,0.2,3.3,0.6c1.3,0.4,2.1,1.3,2.2,2.7
		c0.1,1,0,1.9-0.4,2.9c-0.3,0.6-0.7,1-1.3,1.3c-1,0.4-2,0.7-3.1,0.8c-1.3,0.2-2.6,0.1-3.8-0.3c-1.1-0.3-2-0.9-2.8-1.7
		c-0.3-0.3-0.5-0.6-0.6-0.9c-0.5-1-0.2-2,0.7-2.6c0.7-0.5,1.4-0.7,2.2-0.7c1.7,0,3.3,0.2,4.8,0.9c0.2,0.1,0.4,0.2,0.6,0.4
		c0.3,0.3,0.3,0.7-0.1,0.9c-0.3,0.2-0.6,0.3-1,0.3c-0.9,0.1-1.8,0.1-2.6-0.1c-0.4-0.1-0.7-0.2-1-0.4c-0.4-0.2-0.8-0.4-1.2-0.5
		s-0.8,0-1.1,0.4s-0.3,0.8,0.2,1.1c0.3,0.2,0.7,0.3,1.1,0.4c2.1,0.4,4.2,0.2,6.2-0.7c0.3-0.1,0.6-0.3,0.9-0.5
		c0.5-0.4,0.4-0.9-0.1-1.3s-1.1-0.5-1.6-0.7c-1.1-0.3-2.2-0.4-3.2-0.5c-1.3-0.1-2.6-0.2-3.9-0.5c-0.2,0-0.3-0.1-0.5-0.2
		c-0.6-0.2-1-0.7-1-1.3c0-0.7,0.1-1.5,0.5-2.1c0.3-0.5,0.8-0.9,1.3-1.1c1-0.5,2.1-0.8,3.2-1c1.8-0.4,3.6-0.3,5.5-0.1
		c0.7,0.1,1.5,0.2,2.2,0.4c0.2,0.1,0.4,0.2,0.5,0.3c0.2,0.1,0.3,0.4,0.2,0.6c-0.2,0.8-0.5,1.2-1.3,1.2c-0.9,0.1-1.8,0.1-2.7,0.1
		c-1.7,0.1-3.5,0.2-5.2,0.4c-0.4,0-0.7,0.1-1.1,0.2C45.8,18.5,45.6,18.6,45.5,18.8z"/>
	<path className="st0" d="M69.7,20.7c0.5-0.6,0.7-1.3,1.1-2c-1.1-0.2-2-0.7-2.2-2c0.4-0.2,0.8-0.4,1.2-0.5c1.1-0.3,2.3-0.4,3.4-0.4
		c1-0.1,2-0.1,3-0.2c0.5,0,0.9,0,1.3,0.1c0.2,0,0.3,0.1,0.5,0.2c0.6,0.4,1.1,0.9,1.4,1.6c0.4,0.8,0.1,1-0.6,1.2
		c-0.6,0.1-1.2,0.1-1.8,0.2c-1.2,0.1-2.3,0.1-3.5,0.2h-0.1c-0.3,0.5-0.3,1-0.5,1.6c1.3,0.1,2.6-0.2,3.9,0.2c0.2,0.6,0.2,1.3-0.1,1.9
		c-0.6,0.2-1.2,0.3-1.9,0.3c-0.9,0-1.9,0-2.8,0h-0.1c-0.3,0.8-0.6,1.5-0.8,2.4c0.5,0,0.9-0.1,1.4-0.2c1.1-0.2,2.2-0.4,3.3-0.4
		c0.1,0,0.2,0,0.3,0c0.7-0.1,1.5,0.9,1.3,1.5c-0.1,0.3-0.3,0.5-0.5,0.8c-0.5,0.5-1.1,0.8-1.7,1.1c-1.1,0.6-2.2,1-3.4,1.2
		c-0.5,0.1-0.9,0.1-1.4,0c-1.2-0.2-1.9-0.9-2.2-2c-0.4-1.2-0.3-2.4,0.2-3.5c0.1-0.1,0.1-0.2,0.2-0.4c0.2-0.4,0.2-0.8,0-1.2
		c-0.1-0.3-0.2-0.6-0.2-0.9s0.2-0.5,0.5-0.6C69.2,20.8,69.5,20.7,69.7,20.7z"/>
	<path className="st0" d="M59.6,20.8c-0.2,0.7-0.3,1.3-0.3,2c-0.1,1.1-0.1,2.2-0.2,3.3c-0.1,0.5-0.1,1-0.3,1.5c-0.1,0.3-0.3,0.4-0.6,0.5
		c-0.9,0.2-1.5-0.1-1.8-0.9c-0.1-0.2-0.1-0.5-0.2-0.7c-0.1-1-0.1-1.9,0-2.8c0.2-1.5,0.4-3,0.8-4.4c0.2-0.7,0.4-1.4,0.7-2
		c0.1-0.3,0.3-0.5,0.5-0.7c0.4-0.4,0.8-0.4,1.3-0.1c0.3,0.2,0.5,0.5,0.8,0.8c1.3,1.8,2.5,3.7,3.6,5.6c0.1,0.2,0.2,0.4,0.3,0.5
		c0.1,0.2,0.2,0.3,0.5,0.3c0-0.4,0-0.8,0-1.1c-0.1-1.9-0.5-3.8-1-5.7c-0.2-0.6-0.4-1.3-0.5-1.9c-0.1-0.3-0.1-0.6,0-1
		s0.3-0.5,0.8-0.4c0.3,0.1,0.6,0.4,0.9,0.7c1.3,1.4,2,3,2.4,4.8c0.4,1.7,0.4,3.4,0.2,5.2c-0.1,0.7-0.3,1.5-0.7,2.1
		c-0.3,0.6-0.8,1.1-1.5,1.3c-0.6,0.1-1.2,0-1.7-0.4c-0.5-0.4-0.8-0.9-1.2-1.5c-0.7-1.1-1.2-2.3-1.8-3.4c-0.2-0.5-0.5-0.9-0.8-1.3
		C59.7,20.9,59.6,20.8,59.6,20.8z"/>
	<path className="st0" d="M38.8,12.8c-0.2,0.2-0.3,0.4-0.4,0.6C38,14,37.4,14,37,13.5c-0.2-0.3-0.4-0.5-0.5-0.9c-0.1-0.2-0.1-0.5,0-0.7
		c0.2-0.3,0.1-0.6-0.2-0.9c-0.5-0.5-0.7-1.2-0.7-1.9c0-0.6,0.2-1.2,0.5-1.8c1-1.6,2.4-2.7,4.1-3.3c1.2-0.4,2.4-0.6,3.7-0.6
		c0.3,0,0.7,0.1,1,0.2c0.6,0.2,0.9,0.5,1.2,1.1c0.3,0,0.6,0.1,0.9,0.1c1.2,0.3,1.8,1.3,1.6,2.6c-0.2,1-0.6,1.8-1.2,2.5
		c-1.5,1.7-3.3,2.8-5.5,3.2C41,13.4,39.9,13.3,38.8,12.8C38.9,12.8,38.9,12.8,38.8,12.8z M39.9,10.8C40,10.8,40,10.8,39.9,10.8
		c0.9,0.1,1.8,0.2,2.6,0c1.1-0.2,2.1-0.5,2.9-1.2c0.6-0.5,1.1-1,1.3-1.7c0.3-0.7,0-1.2-0.7-1.4c-0.2,0-0.4,0-0.6,0
		c-0.6,0.1-1.1,0.3-1.7,0.6c-1.2,0.7-2.2,1.7-3.1,2.7C40.4,10.2,40.2,10.5,39.9,10.8z M41.5,5.9c-0.7,0-1.4,0.1-2,0.4
		c-1,0.5-1.7,1.3-1.8,2.5c0,0.2,0,0.4,0,0.7C38.9,8.1,40,6.8,41.5,5.9z"/>
	<path className="st0" d="M41.6,22c0,1,0,2.1,0,3.1c0,0.8,0,1.5-0.2,2.3c-0.2,0.6-0.3,0.7-0.9,0.8c-0.4,0-0.8,0-1.1-0.1
		c-0.4-0.1-0.6-0.4-0.7-0.8c-0.1-0.5-0.1-0.9-0.1-1.4c0-2.2,0-4.4,0.2-6.6c0.1-1,0.2-2,0.4-3c0.1-0.3,0.2-0.6,0.3-0.8
		c0.2-0.4,0.6-0.4,0.9-0.2c0.2,0.1,0.4,0.3,0.6,0.5c0.4,0.6,0.6,1.3,0.6,2c0.1,1.3,0.1,2.5,0,3.8C41.6,21.6,41.6,21.8,41.6,22
		L41.6,22z"/>
	<path className="st0" d="M83,38.5c0,0.5-0.3,0.9-0.8,0.9s-0.9-0.4-0.8-0.9c0-0.5,0.4-0.8,0.9-0.8C82.7,37.7,83,38,83,38.5z M82.3,37.8
		c-0.4,0-0.7,0.3-0.7,0.7s0.3,0.8,0.7,0.8c0.4,0,0.6-0.3,0.6-0.7C82.9,38.1,82.6,37.8,82.3,37.8z"/>
	<path className="st0" d="M82.5,38.9c-0.2,0.2-0.4,0.2-0.5,0.1c-0.2-0.2-0.3-0.6-0.1-0.8c0.1-0.2,0.3-0.2,0.6-0.1
		c-0.1,0.1-0.2,0.1-0.3,0.1c-0.3,0-0.4,0.1-0.4,0.4c0,0.2,0.2,0.4,0.4,0.4C82.4,38.9,82.5,38.9,82.5,38.9z"/>
</g>
</svg>
