<?xml version="1.0" encoding="utf-8"?>
<!-- Generator: Adobe Illustrator 22.0.1, SVG Export Plug-In . SVG Version: 6.00 Build 0)  -->
<svg version="1.1" id="Layer_1" xmlns="http://www.w3.org/2000/svg" xmlns:xlink="http://www.w3.org/1999/xlink" x="0px" y="0px"
	 width="95.7px" height="45px" viewBox="0 0 95.7 45" style="enable-background:new 0 0 95.7 45;" xml:space="preserve">
<style type="text/css">
	.st0{fill:#FFFFFF;}
</style>
<g>
	<polygon className="st0" points="62.4,3.7 62.3,10.7 72.1,10.7 72,37.4 79,37.5 79.1,10.8 88.9,10.8 89,3.9 	"/>
	<path className="st0" d="M11.4,10.5l4.9,0l-0.1,13.2c0,6.3-4.8,11.4-10.9,12.1l0,7c9.9-0.7,17.8-8.9,17.9-19l0.1-20.2L11.5,3.6
		L11.4,10.5z"/>
	<polygon className="st0" points="50,3.6 42.8,14.3 35.7,3.5 27.5,3.5 38.7,20.4 27.3,37.1 35.5,37.2 42.7,26.5 49.8,37.3 58,37.3 
		46.9,20.4 58.2,3.7 	"/>
</g>
</svg>
