<?xml version="1.0" encoding="utf-8"?>
<!-- Generator: Adobe Illustrator 22.0.1, SVG Export Plug-In . SVG Version: 6.00 Build 0)  -->
<svg version="1.1" id="Layer_1" xmlns="http://www.w3.org/2000/svg" xmlns:xlink="http://www.w3.org/1999/xlink" x="0px" y="0px"
	 width="115px" height="34.3px" viewBox="0 0 115 34.3" style="enable-background:new 0 0 115 34.3;" xml:space="preserve">
<style type="text/css">
	.st0{fill:#FFFFFF;}
</style>
<g>
	<path className="st0" d="M23.5,34.3c-7.8,0-15.6,0-23.5,0C0,22.9,0,11.5,0,0c7.8,0,15.6,0,23.5,0C23.5,11.4,23.5,22.8,23.5,34.3z
		 M3.4,3.4c0,9.2,0,18.3,0,27.4c5.6,0,11.1,0,16.7,0c0-9.1,0-18.3,0-27.4C14.5,3.4,9,3.4,3.4,3.4z"/>
	<path className="st0" d="M101.3,30.8c-0.7,0-1.3,0-2,0c0-1.9,0-3.8,0-5.7c-1.4,0-2.8,0-4.2,0c0,1.9,0,3.8,0,5.7c-0.7,0-1.3,0-2,0
		c0-4,0-7.9,0-11.9c0.6,0,1.3,0,2,0c0,1.5,0,3,0,4.6c1.4,0,2.8,0,4.2,0c0-1.5,0-3,0-4.5c0.7,0,1.3,0,2,0
		C101.3,22.9,101.3,26.8,101.3,30.8z"/>
	<path className="st0" d="M60.1,8.9c0.1-1.8,0.7-3.7,2.5-4.9c2-1.4,4.6-0.9,6.1,1c2,2.6,1.8,6.9-0.4,9.2c-2,2.1-5.5,1.7-7-0.7
		C60.5,12.2,60.2,10.8,60.1,8.9z M62.3,9.1c0,1.2,0.2,2.2,0.6,3.2c0.5,0.9,1.1,1.5,2.2,1.5c1,0,1.8-0.5,2.2-1.4c0.9-2,1-4.1,0-6.2
		c-0.4-0.9-1.2-1.4-2.2-1.4s-1.7,0.5-2.2,1.4C62.4,7.3,62.3,8.3,62.3,9.1z"/>
	<path className="st0" d="M46.4,24.4c0.1-1.8,0.7-3.7,2.5-4.9c2-1.4,4.5-0.9,6.1,1c2,2.5,1.9,6.9-0.3,9.2c-2,2.1-5.5,1.8-7.1-0.6
		C46.7,27.7,46.4,26.3,46.4,24.4z M48.5,24.7c0,1,0.1,2.1,0.6,3c0.4,0.9,1.1,1.6,2.2,1.6c1,0,1.8-0.4,2.2-1.3c1-2.1,1.1-4.3,0-6.4
		c-0.4-0.9-1.2-1.3-2.2-1.3s-1.7,0.6-2.2,1.4C48.7,22.7,48.5,23.7,48.5,24.7z"/>
	<path className="st0" d="M80.1,15.4c-0.5,0-1,0-1.4,0c-1.9-2.8-3.8-5.6-5.7-8.5c0,2.9,0,5.6,0,8.4c-0.6,0.1-1.1,0-1.7,0
		c0-4,0-7.9,0-11.9c0.4-0.1,0.9,0,1.4-0.1c1.9,2.7,3.9,5.5,5.7,8.3c0-2.8,0-5.5,0-8.3c0.6,0,1.1,0,1.6,0
		C80.1,7.4,80.1,11.4,80.1,15.4z"/>
	<path className="st0" d="M37.6,3.4c0.6,0,1.1,0,1.6,0c0,3.9,0,7.9,0,11.9c-0.4,0.1-0.9,0-1.4,0c-2-2.8-3.8-5.6-5.7-8.6c0,3,0,5.7,0,8.5
		c-0.6,0.1-1.1,0.1-1.6,0c0-4,0-7.9,0-11.9c0.5,0,0.9,0,1.4,0c2,2.7,3.8,5.5,5.7,8.5C37.6,9,37.6,6.2,37.6,3.4z"/>
	<path className="st0" d="M74.9,30.8c-0.7,0-1.4,0-2.1,0c-0.6-1.5-1.3-3-1.9-4.4c-0.3-0.1-0.6-0.1-1,0c0,1.5,0,2.9,0,4.4
		c-0.7,0-1.3,0-2,0c0-4,0-7.9,0-11.9c1.5,0.1,3-0.2,4.5,0.2c1.6,0.4,2.5,1.9,2.2,3.7c-0.2,1.3-0.8,2.3-2,3.1
		c0.8,1.6,1.5,3.1,2.3,4.7C74.9,30.6,74.9,30.7,74.9,30.8z M70,20.5c0,1.5,0,2.9,0,4.3c2.1-0.2,2.9-1,2.7-2.7
		C72.6,20.9,71.8,20.4,70,20.5z"/>
	<path className="st0" d="M66,30.2c-2.4,1.2-5.2,1-6.9-0.5c-1.4-1.3-2-2.9-2-4.8c0-2.2,0.8-4.1,2.7-5.4c1.8-1.2,4.2-1.1,5.8,0.1
		c-0.2,0.4-0.4,0.9-0.6,1.3c-0.4-0.2-0.7-0.3-1.1-0.4c-1.9-0.5-3.5,0.3-4.3,2.2c-0.8,2-0.3,4.5,1.1,5.8c0.9,0.8,2.2,1,3.4,0.5
		c0-1.2,0-2.4,0-3.7c0.7,0,1.3,0,2,0C66,27,66,28.6,66,30.2z"/>
	<path className="st0" d="M35.9,29c0-1.2,0-2.4,0-3.7c0.7,0,1.3,0,1.9,0c0,1.6,0,3.2,0,4.9c-2.7,1.3-5.6,1-7.3-0.9s-2-4.1-1.3-6.5
		s2.8-4.1,5.3-4.1c1.1,0,2,0.3,3,0.9c-0.2,0.5-0.4,0.9-0.6,1.4c-0.3-0.1-0.5-0.2-0.7-0.3c-2-0.8-3.9,0-4.6,2
		c-0.7,1.8-0.6,3.6,0.5,5.3C32.9,29.2,34.6,29.7,35.9,29z"/>
	<path className="st0" d="M74.9,30.8c0-0.1,0-0.1,0-0.2c0.1,0,0.1,0.1,0.2,0.2c1.3-3.9,2.7-7.9,4-11.8c0.5,0,1.1,0,1.7,0
		c1.2,3.9,2.5,7.9,3.7,11.9c-0.8,0-1.5,0-2.2,0c-0.3-1.1-0.6-2.2-0.9-3.3c-1.2,0-2.4,0-3.6,0c-0.3,1.1-0.7,2.2-1,3.2
		C76.2,30.8,75.5,30.8,74.9,30.8z M78.4,26c0.9,0,1.8,0,2.7,0c-0.4-1.6-0.9-3.1-1.3-4.6C79.3,23,78.9,24.5,78.4,26z"/>
	<path className="st0" d="M90.1,15.3c-0.8,0-1.5,0-2.2,0c-0.3-1.1-0.6-2.2-0.9-3.2c-1.2,0-2.4,0-3.6,0c-0.3,1.1-0.7,2.2-1,3.2
		c-0.6,0-1.1,0-1.7,0c1.4-4,2.7-8,4.1-11.9c0.6,0,1.1,0,1.7,0C87.6,7.3,88.9,11.3,90.1,15.3z M84,10.6c0.9,0,1.8,0,2.7,0
		c-0.4-1.6-0.9-3.1-1.3-4.8C84.9,7.5,84.5,9,84,10.6z"/>
	<path className="st0" d="M49.2,15.3c-0.8,0-1.5,0-2.2,0c-0.3-1.1-0.6-2.1-0.9-3.2c-1.2,0-2.3,0-3.5,0c-0.3,1.1-0.7,2.1-1,3.2
		c-0.6,0-1.1,0-1.7,0c1.4-4,2.7-7.9,4.1-11.9c0.5,0,1.1,0,1.7,0C46.7,7.3,47.9,11.3,49.2,15.3z M44.4,5.8C44,7.5,43.6,9,43.1,10.6
		c0.9,0,1.8,0,2.7,0C45.3,9,44.9,7.5,44.4,5.8z"/>
	<path className="st0" d="M85.2,18.9c1.3,0,2.5-0.1,3.8,0c2.2,0.2,3.4,2,2.9,4.2c-0.4,2-1.8,3.2-4,3.2c-0.2,0-0.5,0-0.7,0.1
		c0,1.4,0,2.9,0,4.4c-0.7,0-1.3,0-2,0C85.2,26.8,85.2,22.9,85.2,18.9z M87.2,24.8c2-0.1,2.9-1,2.7-2.6c-0.2-1.3-1.1-1.9-2.7-1.6
		C87.2,22,87.2,23.4,87.2,24.8z"/>
	<path className="st0" d="M41.9,23.8c1.1,0,2.1,0,3.2,0c0,0.5,0,1,0,1.6c-1,0-2.1,0-3.2,0c0,1.3,0,2.6,0,3.9c1.3,0,2.6,0,3.9,0
		c0.1,0.5,0,1,0,1.6c-2,0-4,0-6,0c0-3.9,0-7.9,0-11.9c1.8,0,3.5,0,5.3,0c0,0.5,0,1,0,1.6c-1.1,0-2.2,0-3.2,0
		C41.9,21.6,41.9,22.7,41.9,23.8z"/>
	<path className="st0" d="M115,19.6c-0.2,0.5-0.4,0.9-0.6,1.4c-0.2-0.1-0.4-0.2-0.5-0.2c-2-0.9-4-0.2-4.7,1.9c-0.7,1.9-0.6,3.9,0.8,5.5
		c1,1.2,2.7,1.4,4.1,0.7c0.1-0.1,0.2-0.1,0.4-0.2c0.2,0.5,0.4,1,0.6,1.5c-1.3,0.8-2.6,1-4,0.6c-2.3-0.5-4-2.5-4.2-5
		c-0.2-2.2,0.2-4.1,1.8-5.7C110.3,18.4,113,18.2,115,19.6z"/>
	<path className="st0" d="M53.2,15.3c-0.7,0-1.3,0-2,0c0-3.4,0-6.8,0-10.3c-1,0-2,0-3,0c0-0.6,0-1.1,0-1.6c2.7,0,5.4,0,8.1,0
		c0.1,0.5,0,1,0,1.6c-1,0-2,0-3.1,0C53.2,8.5,53.2,11.9,53.2,15.3z"/>
	<path className="st0" d="M90.8,3.4c0.7,0,1.3,0,2,0c0,3.5,0,6.9,0,10.4c1.4,0,2.7,0,4,0c0.1,0.5,0.1,1,0,1.5c-2,0-3.9,0-5.9,0
		C90.8,11.4,90.8,7.4,90.8,3.4z"/>
	<path className="st0" d="M103.3,30.8c0-4,0-7.9,0-11.9c0.7,0,1.3,0,2,0c0,3.9,0,7.9,0,11.9C104.7,30.8,104,30.8,103.3,30.8z"/>
	<path className="st0" d="M56.9,15.3c0-4,0-7.9,0-11.9c0.6,0,1.3,0,1.9,0c0,3.9,0,7.9,0,11.9C58.2,15.3,57.6,15.3,56.9,15.3z"/>
</g>
</svg>
