<?xml version="1.0" encoding="utf-8"?>
<!-- Generator: Adobe Illustrator 22.0.1, SVG Export Plug-In . SVG Version: 6.00 Build 0)  -->
<svg version="1.1" id="Layer_1" xmlns="http://www.w3.org/2000/svg" xmlns:xlink="http://www.w3.org/1999/xlink" x="0px" y="0px"
	 width="91.5px" height="40.2px" viewBox="0 0 91.5 40.2" style="enable-background:new 0 0 91.5 40.2;" xml:space="preserve">
<style type="text/css">
	.st0{fill:#FFFFFF;}
</style>
<g>
	<path className="st0" d="M0.7,14.9c0.2-0.6,0.2-1.1,0.3-1.7c1-4.1,3.5-7,7.5-8.5c3.9-1.5,7.8-1.3,11.6,0.7c3.5,1.9,5.4,4.9,6,8.8
		c0.4,3.4-0.3,6.5-2.3,9.2c-2,2.6-4.7,4.1-8,4.7c-2.9,0.5-5.6,0.2-8.3-1.1c-3.9-1.9-6.1-5.1-6.7-9.3c0-0.1,0-0.2-0.1-0.3
		C0.7,16.5,0.7,15.7,0.7,14.9z M21.1,15.9c0-1.2-0.1-2.4-0.4-3.7c-0.5-2.1-1.4-4-3-5.4c-2.2-1.9-5.3-2.2-7.7-0.6
		c-1.6,1-2.6,2.5-3.2,4.2c-1.1,2.7-1.2,5.6-0.7,8.5c0.3,2,1.1,3.9,2.4,5.5c1.8,2.1,4.5,2.9,7,2.1c1.9-0.6,3.2-2,4.1-3.7
		C20.6,20.7,21,18.4,21.1,15.9z"/>
	<path className="st0" d="M33.1,37.6c-0.4-0.2-0.7-0.1-1.1-0.2c-1.1-0.2-2-0.6-2.9-1.3c-0.9-0.8-1.4-1.7-1.3-2.9c0-1.1,1.2-1.8,2.2-1.3
		c0.4,0.2,0.6,0.6,0.7,1.1c0,0.1,0,0.2,0,0.3c-0.1,1.8,0.5,2.5,2.2,2.8s3.4,0.2,5-0.7c1.1-0.6,1.8-1.5,2-2.8s-0.5-2.2-1.8-2.3
		c-0.9-0.1-1.8,0.1-2.7,0.2c-1.4,0.2-2.9,0.4-4.3,0.5c-0.7,0-1.4,0-2.2-0.2c-1.4-0.4-2.3-1.3-2.5-2.7c-0.3-1.5,0.2-2.8,1.5-3.8
		c0.8-0.6,1.7-0.8,2.6-1c0-0.1-0.1-0.1-0.1-0.2c-3.5-2.2-3.5-7,0-9.2c2.1-1.3,4.4-1.5,6.8-0.8c0.2,0,0.3,0.2,0.5,0.1
		c0-0.6,0-1.2,0.1-1.9c0.5-2.7,2.3-4.3,4.9-5C44,6,45.4,6,46.7,6.4c1,0.3,1.8,0.9,2.2,1.9c0.4,1.2-0.3,2.4-1.5,2.8
		c-1.2,0.3-2.4-0.4-2.7-1.6c-0.1-0.3,0-0.6,0-0.9c0-0.5-0.1-0.6-0.6-0.7c-1.7-0.3-3.5,0.7-4.3,2.4c-0.5,1.2-0.6,2.4-0.3,3.7
		c0.1,0.4,0.3,0.7,0.5,1c1.9,2.3,1.4,5.8-1.1,7.6c-1.2,0.9-2.7,1.4-4.2,1.4c-1.3,0-2.6,0-3.8,0.3c-0.5,0.1-1,0.3-1.5,0.6
		c-0.5,0.4-0.7,0.9-0.6,1.4c0.1,0.6,0.5,0.9,1.1,1s1.2,0,1.8-0.1c1.9-0.2,3.8-0.5,5.7-0.7c0.8-0.1,1.7,0,2.5,0.3
		c1.9,0.7,2.9,2.4,2.6,4.4c-0.3,3-2.5,5.2-5.6,6c-0.5,0.1-1,0.2-1.5,0.3C34.6,37.6,33.9,37.6,33.1,37.6z M37.2,18.3
		c0-0.3,0-0.5,0-0.8c-0.1-1-0.4-1.9-1-2.7s-1.4-1.2-2.4-1c-0.8,0.2-1.3,0.7-1.7,1.4c-0.7,1.2-0.8,2.5-0.7,3.8
		c0.1,1.1,0.4,2.1,1.2,2.9c1,1.1,2.6,1.1,3.5-0.1c0.2-0.2,0.3-0.5,0.5-0.8C37,20.2,37.2,19.2,37.2,18.3z"/>
	<path className="st0" d="M90.8,14.1c-0.3,0.1-0.6,0.1-0.9,0.2c-0.6,0.2-1.1,0.6-1.3,1.2c-1.7,3.9-3.4,7.8-5,11.7
		c-1,2.2-1.9,4.4-2.9,6.6c-0.5,1-1,1.9-1.8,2.6c-0.9,0.8-1.9,1.3-3.2,1.1c-0.9-0.2-1.4-0.9-1.3-1.6c0.1-0.9,0.8-1.5,1.7-1.4
		c0.4,0,0.7,0,1.1,0.1c0.6,0,1.1-0.2,1.5-0.7s0.7-1,0.9-1.6c0.6-1.3,1.1-2.6,1.7-3.9c-1-2.5-2.1-5-3.1-7.5c-0.8-1.9-1.6-3.9-2.4-5.8
		c-0.2-0.4-0.5-0.7-1-0.7c-0.6,0-1,0.1-1.3,0.7c-0.4,0.9-0.8,1.8-1.1,2.7c-1.4,3.4-2.8,6.7-4.1,10.1c0,0.1-0.1,0.2-0.1,0.3
		c-0.8,0-1.6,0-2.4,0c-0.4-1.1-0.9-2.1-1.3-3.2c-1.3-3.1-2.5-6.2-3.8-9.3c-0.3-0.7-0.7-1.2-1.5-1.2c-0.1,0-0.3-0.1-0.4-0.1
		c0-0.3,0-0.7,0-1c2.6,0,5.1,0,7.7,0c0,0.3,0,0.6,0,1c-0.4,0.1-0.9,0.2-1.3,0.3s-0.6,0.3-0.5,0.7c0,0.2,0.1,0.5,0.2,0.7
		c1,2.6,2,5.1,3,7.6c0,0.1,0.1,0.3,0.2,0.3c0.2,0,0.2-0.2,0.3-0.3c1-2.6,2-5.2,3-7.9c0-0.1,0.1-0.2,0.1-0.4c0.1-0.5,0-0.7-0.5-0.8
		c-0.4-0.1-0.9-0.2-1.3-0.3c0-0.3,0-0.7,0-1c4,0,8.1,0,12.1,0c0,0.3,0,0.6,0,1c-0.4,0.1-0.8,0.2-1.3,0.3s-0.6,0.3-0.5,0.8
		c0,0.2,0.1,0.4,0.2,0.6c0.9,2.4,1.9,4.8,2.8,7.2c0.1,0.1,0.1,0.3,0.3,0.4c0.2-0.1,0.2-0.2,0.3-0.4c1-2.4,2-4.9,3.1-7.3
		c0-0.1,0.1-0.2,0.1-0.3c0.2-0.7,0.1-0.9-0.6-1.1c-0.4-0.1-0.7-0.1-1.1-0.2c-0.1-0.3,0-0.6,0-1c2,0,3.9,0,5.9,0
		C90.8,13.4,90.8,13.8,90.8,14.1z"/>
	<path className="st0" d="M57.4,2.6c-0.1,0.1,0,0.3,0,0.4c0,7.6,0,15.2,0,22.9c0,0.6,0.1,0.7,0.7,0.8c0.4,0,0.9,0.1,1.3,0.1
		c0,0.4,0,0.7,0,1.1c-5.5,0-10.9,0-16.4,0c0-0.4,0-0.7,0-1.1c0.4-0.1,0.8-0.1,1.2-0.2c0.4,0,0.6-0.2,0.6-0.6c0-3.4,0-6.8,0-10.2
		c0-0.4-0.2-0.6-0.5-0.7c-0.5-0.2-1-0.3-1.6-0.5c0-0.3,0-0.5,0-0.7c2-0.5,4-1,6-1.5c0.1,0.2,0,0.3,0,0.4c0,4.3,0,8.5,0,12.8
		c0,0.7,0.2,0.9,0.9,0.9c1,0,2,0,3,0c0.5,0,0.8-0.3,0.8-0.8c0-6.6,0-13.2,0-19.8c0-0.4-0.2-0.6-0.5-0.7c-0.5-0.2-1-0.3-1.6-0.5
		c0-0.2,0-0.5,0-0.7c1-0.3,2-0.5,3.1-0.8C55.3,3,56.1,2.8,57,2.5c0.1,0,0.1,0,0.2-0.1C57.3,2.6,57.4,2.6,57.4,2.6z"/>
</g>
</svg>
